<svg width="83.000000" height="83.000000" viewBox="0 0 83 83" fill="none" xmlns="http://www.w3.org/2000/svg" xmlns:xlink="http://www.w3.org/1999/xlink">
	<desc>
			Created with Pixso.
	</desc>
	<defs>
		<clipPath id="clip51_1164">
			<rect id="icons8_cash_in_hand_1 1" rx="0.000000" width="82.000000" height="82.000000" transform="translate(0.500000 0.500000)" fill="white" fill-opacity="0"/>
		</clipPath>
		<linearGradient x1="41.551880" y1="3.475586" x2="41.551880" y2="81.080589" id="paint_linear_51_1165_0" gradientUnits="userSpaceOnUse">
			<stop stop-color="#FFC619"/>
			<stop offset="0.494792" stop-color="#F69020"/>
			<stop offset="1.000000" stop-color="#EA422A"/>
		</linearGradient>
	</defs>
	<rect id="icons8_cash_in_hand_1 1" rx="0.000000" width="82.000000" height="82.000000" transform="translate(0.500000 0.500000)" fill="#FFFFFF" fill-opacity="0"/>
	<g clip-path="url(#clip51_1164)">
		<path id="Vector" d="M56.85 3.47L55.92 4.87L41.18 26.09L28.22 29.93L28.16 29.98L28.11 29.98C26.47 30.59 25.2 31.67 24.22 33.04L24.17 33.09L24.17 33.14L12.96 50.42L12.55 49.07L1.65 52.34L0.1 52.86L0.57 54.41L8.04 79.47L8.5 81.08L10.11 80.61L19.4 77.76L21 77.29L20.49 75.73L19.55 72.57L32.57 69.66C36.57 68.76 40.22 66.6 42.79 63.28L43.41 62.5L49.69 66.91L51.04 67.9L51.97 66.5L82.06 23.03L83 21.68L81.59 20.69L58.2 4.46L56.85 3.47ZM57.68 8.09L78.38 22.51L66.5 39.68C68.02 34.82 65.69 29.01 60.74 25.57C60.73 25.56 60.75 25.52 60.74 25.52C60.73 25.5 60.7 25.53 60.69 25.52C57.8 23.48 54.37 22.63 51.25 22.92C49.46 23.09 47.78 23.66 46.32 24.58L57.68 8.09ZM64.63 17.94C63.72 17.94 62.85 18.38 62.3 19.19C61.41 20.47 61.74 22.2 63.02 23.08C64.31 23.96 66.08 23.64 66.97 22.35C67.85 21.07 67.52 19.34 66.24 18.46C65.76 18.13 65.18 17.95 64.63 17.94ZM51.66 26.19C53.96 25.98 56.52 26.61 58.77 28.22L58.82 28.27C63.52 31.5 64.92 36.99 62.56 40.41L62.5 40.41C61.31 42.25 59.32 43.25 56.85 43.36C56.93 41.46 56.26 39.57 54.78 38.17C54.76 38.16 54.74 38.19 54.72 38.17C52.46 35.94 48.93 35.56 46.32 37.29C44.74 34.45 44.62 31.35 46.16 29.15C47.34 27.44 49.37 26.4 51.66 26.19ZM38.23 30.45L30.29 42.95L29.41 44.4L30.86 45.23L36.15 48.39L37.14 49.02L38.07 48.24L46.48 41.44C46.9 41.31 47.25 41.01 47.46 40.61L47.88 40.3C49.2 39.2 51.22 39.29 52.44 40.51L52.44 40.56L52.49 40.56C53.85 41.81 53.98 43.75 52.8 45.28L40.2 61.21C38.12 63.87 35.15 65.69 31.85 66.45L18.62 69.4L13.95 53.74L14.47 53.53L15.04 53.32L15.35 52.86L26.92 35.01C27.57 34.09 28.25 33.53 29.2 33.14C29.24 33.13 29.27 33.1 29.3 33.09L38.23 30.45ZM42.01 30.65C41.37 33.54 42.02 36.67 43.67 39.42L36.88 44.97L34.03 43.26L42.01 30.65ZM63.18 44.5L50.21 63.28L45.44 59.91L55.4 47.36L55.4 47.3L55.45 47.3C55.61 47.1 55.73 46.9 55.86 46.68C58.56 46.76 61.16 46.07 63.18 44.5ZM10.32 53.17L16.85 75.11L10.73 76.98L4.2 55.09L10.32 53.17Z" fill="url(#paint_linear_51_1165_0)" fill-opacity="1.000000" fill-rule="nonzero"/>
	</g>
</svg>
