<svg width="86.000000" height="86.000000" viewBox="0 0 86 86" fill="none" xmlns="http://www.w3.org/2000/svg" xmlns:xlink="http://www.w3.org/1999/xlink">
	<desc>
			Created with Pixso.
	</desc>
	<defs>
		<clipPath id="clip51_1144">
			<rect id="icons8_cd 1" rx="0.000000" width="85.000000" height="85.000000" transform="translate(0.500000 0.500000)" fill="white" fill-opacity="0"/>
		</clipPath>
		<linearGradient x1="43.000114" y1="3.450195" x2="43.000114" y2="82.550034" id="paint_linear_51_1145_0" gradientUnits="userSpaceOnUse">
			<stop stop-color="#FFC619"/>
			<stop offset="0.500000" stop-color="#F69020"/>
			<stop offset="1.000000" stop-color="#EA422A"/>
		</linearGradient>
	</defs>
	<rect id="icons8_cd 1" rx="0.000000" width="85.000000" height="85.000000" transform="translate(0.500000 0.500000)" fill="#FFFFFF" fill-opacity="0"/>
	<g clip-path="url(#clip51_1144)">
		<path id="Vector" d="M43 3.45C21.17 3.45 3.45 21.17 3.45 43C3.45 64.82 21.17 82.55 43 82.55C64.82 82.55 82.55 64.82 82.55 43C82.55 21.17 64.82 3.45 43 3.45ZM43 6.87C47.45 6.87 51.71 7.67 55.64 9.14L47.48 28.2C46.06 27.77 44.55 27.53 43 27.53C34.47 27.53 27.53 34.47 27.53 43C27.53 44.55 27.77 46.06 28.2 47.48L9.14 55.64C7.67 51.71 6.87 47.45 6.87 43C6.87 23.02 23.02 6.87 43 6.87ZM58.77 10.52C66.04 14.06 71.93 19.95 75.47 27.22L56.44 35.37C55.05 32.95 53.04 30.94 50.62 29.55L58.77 10.52ZM76.85 30.35C78.32 34.28 79.13 38.54 79.13 43C79.13 62.97 62.97 79.13 43 79.13C38.54 79.13 34.28 78.32 30.35 76.85L38.51 57.79C39.93 58.22 41.44 58.47 43 58.47C51.52 58.47 58.47 51.52 58.47 43C58.47 41.44 58.22 39.93 57.79 38.51L76.85 30.35ZM43 30.95C49.67 30.95 55.05 36.32 55.05 43C55.05 49.67 49.67 55.05 43 55.05C36.32 55.05 30.95 49.67 30.95 43C30.95 36.32 36.32 30.95 43 30.95ZM43 37.84C40.15 37.84 37.84 40.15 37.84 43C37.84 45.85 40.15 48.16 43 48.16C45.85 48.16 48.16 45.85 48.16 43C48.16 40.15 45.85 37.84 43 37.84ZM29.55 50.62C30.94 53.04 32.95 55.05 35.37 56.44L27.22 75.47C19.95 71.93 14.06 66.04 10.52 58.77L29.55 50.62Z" fill="url(#paint_linear_51_1145_0)" fill-opacity="1.000000" fill-rule="nonzero"/>
	</g>
</svg>
