<svg width="73.000000" height="73.000000" viewBox="0 0 73 73" fill="none" xmlns="http://www.w3.org/2000/svg" xmlns:xlink="http://www.w3.org/1999/xlink">
	<desc>
			Created with Pixso.
	</desc>
	<defs>
		<clipPath id="clip51_1184">
			<rect id="icons8_champagne_bottle_1 1" rx="0.000000" width="72.000000" height="72.000000" transform="translate(0.500000 0.500000)" fill="white" fill-opacity="0"/>
		</clipPath>
		<linearGradient x1="36.504421" y1="2.931396" x2="36.504421" y2="70.070038" id="paint_linear_51_1185_0" gradientUnits="userSpaceOnUse">
			<stop stop-color="#FFC619"/>
			<stop offset="0.484375" stop-color="#F69020"/>
			<stop offset="1.000000" stop-color="#EA422A"/>
		</linearGradient>
	</defs>
	<rect id="icons8_champagne_bottle_1 1" rx="0.000000" width="72.000000" height="72.000000" transform="translate(0.500000 0.500000)" fill="#FFFFFF" fill-opacity="0"/>
	<g clip-path="url(#clip51_1184)">
		<path id="Vector" d="M62 2.93C60.22 2.93 58.44 3.6 57.09 4.95L54.44 7.6C53.93 8.11 53.87 8.93 54.31 9.51L51.21 12.61C44.88 18.94 39.61 20.85 34.31 22.62C29.02 24.39 23.61 26 18.06 31.56L4.66 44.95C2.34 47.27 2.34 51.07 4.66 53.39L12.13 60.86L19.6 68.32C21.92 70.65 25.72 70.65 28.04 68.32L41.43 54.93C46.99 49.38 48.6 43.97 50.37 38.68C52.13 33.38 54.05 28.11 60.38 21.78L63.48 18.68C64.06 19.12 64.88 19.06 65.39 18.55L68.04 15.9C70.74 13.2 70.74 8.78 68.04 6.09L66.9 4.95C65.55 3.6 63.78 2.92 62 2.93ZM62 5.82C63.03 5.83 64.05 6.22 64.85 7.01L65.98 8.15C67.56 9.73 67.56 12.25 65.98 13.83L64.37 15.44L60.96 12.03C60.92 11.99 60.88 11.95 60.83 11.91L57.55 8.63L59.15 7.01C59.95 6.22 60.97 5.82 62 5.82ZM36.5 5.83C35.69 5.83 35.04 6.49 35.04 7.3C35.04 8.1 35.69 8.76 36.5 8.76C37.3 8.76 37.96 8.1 37.96 7.3C37.96 6.49 37.3 5.83 36.5 5.83ZM45.26 10.22C44.45 10.22 43.8 10.87 43.8 11.68C43.8 12.48 44.45 13.14 45.26 13.14C46.06 13.14 46.72 12.48 46.72 11.68C46.72 10.87 46.06 10.22 45.26 10.22ZM56.36 11.58L61.41 16.63L58.31 19.72C56.12 21.91 54.44 24.02 53.06 26.06L46.93 19.93C48.97 18.55 51.08 16.87 53.27 14.68L56.36 11.58ZM44.38 21.51L51.48 28.61C50.23 30.82 49.32 32.95 48.57 34.99L40.65 32.34L38 24.42C40.04 23.67 42.17 22.76 44.38 21.51ZM35.25 25.39L38.11 33.96C38.25 34.4 38.59 34.74 39.03 34.88L47.6 37.74C47.6 37.74 47.6 37.75 47.6 37.75C45.81 43.11 44.47 47.77 39.37 52.87L25.98 66.27C24.78 67.46 22.87 67.46 21.67 66.27L6.72 51.32C5.53 50.12 5.53 48.22 6.72 47.01L20.12 33.62C25.22 28.52 29.88 27.18 35.24 25.39C35.24 25.39 35.25 25.39 35.25 25.39ZM64.24 26.28C63.43 26.28 62.78 26.93 62.78 27.74C62.78 28.54 63.43 29.2 64.24 29.2C65.04 29.2 65.7 28.54 65.7 27.74C65.7 26.93 65.04 26.28 64.24 26.28ZM68.62 32.12C67.81 32.12 67.16 32.77 67.16 33.58C67.16 34.38 67.81 35.04 68.62 35.04C69.42 35.04 70.08 34.38 70.08 33.58C70.08 32.77 69.42 32.12 68.62 32.12ZM61.32 35.04C60.51 35.04 59.86 35.69 59.86 36.5C59.86 37.3 60.51 37.96 61.32 37.96C62.12 37.96 62.78 37.3 62.78 36.5C62.78 35.69 62.12 35.04 61.32 35.04ZM33.58 36.5C31.96 36.5 30.66 37.8 30.66 39.41C30.66 41.03 31.96 42.34 33.58 42.34C35.19 42.34 36.5 41.03 36.5 39.41C36.5 37.8 35.19 36.5 33.58 36.5ZM22.34 37.32C21.96 37.33 21.6 37.48 21.33 37.75L12.13 46.95C11.56 47.52 11.56 48.45 12.13 49.02L23.97 60.86C24.54 61.42 25.47 61.42 26.04 60.86L35.23 51.66C35.81 51.09 35.81 50.17 35.23 49.6L23.39 37.75C23.12 37.48 22.73 37.32 22.34 37.32ZM22.36 40.85L32.14 50.63L25 57.76L15.23 47.99L22.36 40.85Z" fill="url(#paint_linear_51_1185_0)" fill-opacity="1.000000" fill-rule="nonzero"/>
	</g>
</svg>
