<svg width="86.000000" height="86.000000" viewBox="0 0 86 86" fill="none" xmlns="http://www.w3.org/2000/svg" xmlns:xlink="http://www.w3.org/1999/xlink">
	<desc>
			Created with Pixso.
	</desc>
	<defs>
		<clipPath id="clip51_1174">
			<rect id="icons8_goal 1" rx="0.000000" width="85.000000" height="85.000000" transform="translate(0.500000 0.500000)" fill="white" fill-opacity="0"/>
		</clipPath>
		<linearGradient x1="42.999939" y1="3.439941" x2="42.999939" y2="82.559937" id="paint_linear_51_1175_0" gradientUnits="userSpaceOnUse">
			<stop stop-color="#FFC619"/>
			<stop offset="0.479167" stop-color="#F69020"/>
			<stop offset="1.000000" stop-color="#EA422A"/>
		</linearGradient>
	</defs>
	<rect id="icons8_goal 1" rx="0.000000" width="85.000000" height="85.000000" transform="translate(0.500000 0.500000)" fill="#FFFFFF" fill-opacity="0"/>
	<g clip-path="url(#clip51_1174)">
		<path id="Vector" d="M43 3.43C21.18 3.43 3.43 21.18 3.43 43C3.43 64.81 21.18 82.55 43 82.55C64.81 82.55 82.56 64.81 82.56 43C82.56 35.09 80.22 27.72 76.2 21.53L74.67 23.07L73.69 24.05C77.11 29.56 79.11 36.04 79.11 43C79.11 62.91 62.91 79.11 43 79.11C23.08 79.11 6.87 62.91 6.87 43C6.87 23.08 23.08 6.87 43 6.87C51.45 6.87 59.2 9.83 65.35 14.71L65.35 18.2L61.17 22.39C56.31 18.1 49.96 15.48 43 15.48C27.82 15.48 15.48 27.82 15.48 43C15.48 58.17 27.82 70.51 43 70.51C58.17 70.51 70.51 58.17 70.51 43C70.51 37.27 68.75 31.95 65.75 27.54L63.26 30.03C65.66 33.78 67.07 38.22 67.07 43C67.07 56.27 56.27 67.08 43 67.08C29.72 67.08 18.91 56.27 18.91 43C18.91 29.72 29.72 18.91 43 18.91C49.02 18.91 54.51 21.15 58.73 24.82L52.63 30.92C49.99 28.8 46.64 27.51 43 27.51C34.46 27.51 27.52 34.46 27.52 43C27.52 51.53 34.46 58.48 43 58.48C51.53 58.48 58.48 51.53 58.48 43C58.48 40.61 57.92 38.36 56.95 36.34L54.33 38.96C54.78 40.22 55.04 41.58 55.04 43C55.04 49.63 49.63 55.03 43 55.03C36.36 55.03 30.96 49.63 30.96 43C30.96 36.36 36.36 30.96 43 30.96C45.7 30.96 48.18 31.86 50.19 33.37L43.88 39.68C43.59 39.6 43.29 39.56 43 39.55C42.08 39.55 41.21 39.92 40.56 40.56C39.92 41.21 39.56 42.08 39.56 43C39.56 43.91 39.92 44.78 40.56 45.43C41.21 46.07 42.08 46.43 43 46.43C43.91 46.43 44.78 46.07 45.43 45.43C46.07 44.78 46.43 43.91 46.43 43C46.43 42.69 46.4 42.4 46.32 42.1L67.79 20.63L72.24 20.63L80.83 12.03L73.96 12.03L73.96 5.15L67.29 11.82C60.58 6.57 52.15 3.43 43 3.43Z" fill="url(#paint_linear_51_1175_0)" fill-opacity="1.000000" fill-rule="nonzero"/>
	</g>
</svg>
