<svg width="80.000000" height="80.000000" viewBox="0 0 80 80" fill="none" xmlns="http://www.w3.org/2000/svg" xmlns:xlink="http://www.w3.org/1999/xlink">
	<desc>
			Created with Pixso.
	</desc>
	<defs>
		<clipPath id="clip51_1154">
			<rect id="icons8_party 1" rx="0.000000" width="79.000000" height="79.000000" transform="translate(0.500000 0.500000)" fill="white" fill-opacity="0"/>
		</clipPath>
		<linearGradient x1="39.948746" y1="3.895752" x2="39.948746" y2="76.900085" id="paint_linear_51_1155_0" gradientUnits="userSpaceOnUse">
			<stop stop-color="#FFC619"/>
			<stop offset="0.489583" stop-color="#F69020"/>
			<stop offset="1.000000" stop-color="#EA422A"/>
		</linearGradient>
	</defs>
	<rect id="icons8_party 1" rx="0.000000" width="79.000000" height="79.000000" transform="translate(0.500000 0.500000)" fill="#FFFFFF" fill-opacity="0"/>
	<g clip-path="url(#clip51_1154)">
		<path id="Vector" d="M72.1 3.9C69.93 3.8 67.91 5.24 67.35 7.4L65.14 15.95L59.14 24.6L49.6 26.75C47.98 27.11 46.5 27.95 45.39 29.2L38.79 36.55C37.96 37.48 37.32 38.63 37 39.85L34.75 48.35C34.13 50.63 35.47 53.01 37.75 53.65C40 54.27 42.37 52.93 43.04 50.7L45.29 43.25L48.85 39.7C48.81 40.66 49.05 41.3 48.85 42.3C48.41 44.45 47.75 46.25 47.75 46.25L41.54 58.2C41.21 58.85 40.94 59.54 40.79 60.25L38.54 71.1C37.93 74.03 40.19 76.9 43.19 76.9L43.69 76.9C45.96 76.9 47.94 75.26 48.39 73.05L50.5 62.7L55.85 53.1L60.19 58.75L61.75 72.65C62.01 75.05 64.08 76.9 66.5 76.9C69.3 76.9 71.53 74.39 71.25 71.6L69.75 56.8C69.65 55.9 69.38 55.01 69 54.2L64.44 44.6C64.79 43.65 66.5 38.53 65.89 32.8L73.39 20.15C73.46 20.03 73.51 19.92 73.54 19.79L76.39 9.85C77.12 7.32 75.6 4.68 73.04 4.05C72.74 3.97 72.4 3.91 72.1 3.9ZM30.79 4.4C30.21 4.41 29.61 4.53 29.04 4.8C26.94 5.77 25.93 8.24 26.79 10.4L29.6 17.5L25.04 25.6L17.39 26.65L12.6 21.15L12.85 18.95C13.13 22.65 16.23 25.6 20 25.6C23.95 25.6 27.19 22.35 27.19 18.4C27.19 14.44 23.95 11.2 20 11.2C16.81 11.2 14.08 13.31 13.14 16.2L13.6 12.45C13.89 9.95 11.96 7.68 9.44 7.55L9.1 7.55C6.78 7.43 4.74 9.14 4.5 11.45L3.35 22.2C3.18 23.71 3.63 25.18 4.54 26.4L12.29 36.65L9.5 42.85C8.36 45.35 7.91 48.11 8.19 50.85L10.44 72.35C10.71 74.85 12.83 76.8 15.35 76.8C18.21 76.8 20.48 74.3 20.25 71.45L18.64 52.2L18.85 52.05L23.85 59.05L21.29 71C20.66 73.95 22.97 76.8 26 76.8C28.17 76.8 30.05 75.31 30.6 73.2L34 60.15C34.39 58.6 34.19 56.96 33.44 55.55L28.1 45.4L30.64 34L38.35 21.1C39.18 19.7 39.35 18 38.75 16.5L34.94 7.15C34.48 5.99 33.58 5.12 32.5 4.7C31.96 4.48 31.38 4.38 30.79 4.4ZM71.64 7.1C71.83 7.07 72.04 7.1 72.25 7.15C73.08 7.35 73.53 8.17 73.29 9L70.44 18.9L62.94 31.55C62.75 31.86 62.65 32.23 62.69 32.6C63.44 37.95 61.25 44.2 61.25 44.2C61.09 44.6 61.11 45.05 61.29 45.45L66.1 55.55C66.33 56.04 66.49 56.6 66.54 57.15L68.04 71.95C68.14 72.9 67.46 73.7 66.5 73.7C65.68 73.7 65.04 73.11 64.94 72.3L63.29 57.9C63.27 57.61 63.16 57.33 63 57.1L56.94 49.25C56.63 48.8 56.1 48.55 55.55 48.58C55.01 48.61 54.51 48.91 54.25 49.4L47.6 61.3C47.52 61.44 47.47 61.59 47.44 61.75L45.25 72.4C45.1 73.14 44.45 73.7 43.69 73.7L43.19 73.7C42.16 73.7 41.43 72.81 41.64 71.8L43.94 60.9C44.04 60.46 44.19 60.03 44.39 59.65L50.69 47.5C50.73 47.43 50.76 47.36 50.79 47.3C50.79 47.3 51.51 45.35 52 42.95C52.48 40.54 52.94 37.73 51.79 35.35C51.57 34.88 51.14 34.56 50.63 34.47C50.13 34.38 49.61 34.54 49.25 34.9L42.79 41.2C42.6 41.39 42.46 41.63 42.39 41.9L40 49.8C39.81 50.4 39.2 50.71 38.6 50.55C37.98 50.38 37.68 49.76 37.85 49.15L40.1 40.65C40.29 39.92 40.64 39.26 41.14 38.7L47.79 31.35C47.79 31.33 47.79 31.31 47.79 31.3C48.45 30.56 49.33 30.06 50.29 29.85L60.44 27.55C60.85 27.46 61.21 27.23 61.44 26.9L67.94 17.5C68.06 17.33 68.14 17.15 68.19 16.95L70.44 8.2C70.6 7.59 71.08 7.18 71.64 7.1ZM30.89 7.6C31.37 7.58 31.79 7.86 32 8.35L35.75 17.7C35.98 18.28 35.91 18.91 35.6 19.45L27.75 32.6C27.66 32.73 27.59 32.88 27.54 33.05L24.79 45.25C24.71 45.62 24.76 46.01 24.94 46.35L30.64 57.05C31.02 57.75 31.1 58.57 30.89 59.35L27.5 72.4C27.31 73.11 26.73 73.6 26 73.6C24.94 73.6 24.17 72.68 24.39 71.65L27.14 59.05C27.24 58.61 27.14 58.16 26.89 57.8L20.5 48.85C20.25 48.5 19.86 48.26 19.44 48.2C19.02 48.13 18.59 48.24 18.25 48.5L16 50.25C15.57 50.58 15.35 51.11 15.39 51.65L17.1 71.7C17.18 72.73 16.38 73.6 15.35 73.6C14.44 73.6 13.69 72.95 13.6 72.05L11.39 50.5C11.17 48.32 11.49 46.13 12.39 44.15L15.6 37.1C15.84 36.58 15.78 35.96 15.44 35.5L7.1 24.5C6.67 23.93 6.47 23.2 6.54 22.5L7.69 11.8C7.76 11.15 8.25 10.71 8.89 10.75L9.29 10.75C10.01 10.78 10.48 11.39 10.39 12.1L9.29 21.45C9.25 21.9 9.39 22.36 9.69 22.7L15.6 29.4C15.95 29.81 16.5 30.03 17.04 29.95L26.29 28.65C26.78 28.57 27.21 28.28 27.44 27.85L32.79 18.35C33.03 17.93 33.06 17.44 32.89 17L29.79 9.2C29.55 8.59 29.81 7.97 30.39 7.7C30.55 7.62 30.74 7.6 30.89 7.6ZM52 11.2C48.04 11.2 44.79 14.44 44.79 18.4C44.79 22.35 48.04 25.6 52 25.6C55.95 25.6 59.19 22.35 59.19 18.4C59.19 14.44 55.95 11.2 52 11.2ZM20 14.4C22.22 14.4 24 16.17 24 18.4C24 20.62 22.22 22.4 20 22.4C17.77 22.4 16 20.62 16 18.4C16 16.17 17.77 14.4 20 14.4ZM52 14.4C54.22 14.4 56 16.17 56 18.4C56 20.62 54.22 22.4 52 22.4C49.77 22.4 48 20.62 48 18.4C48 16.17 49.77 14.4 52 14.4Z" fill="url(#paint_linear_51_1155_0)" fill-opacity="1.000000" fill-rule="nonzero"/>
	</g>
</svg>
