<svg width="68.000000" height="68.000000" viewBox="0 0 68 68" fill="none" xmlns="http://www.w3.org/2000/svg" xmlns:xlink="http://www.w3.org/1999/xlink">
	<desc>
			Created with Pixso.
	</desc>
	<defs>
		<clipPath id="clip51_983">
			<rect id="icons8_cash_in_hand 1" rx="0.000000" width="67.000000" height="67.000000" transform="translate(0.500000 0.500000)" fill="white" fill-opacity="0"/>
		</clipPath>
		<linearGradient x1="34.042458" y1="2.847473" x2="34.042458" y2="66.427475" id="paint_linear_51_984_0" gradientUnits="userSpaceOnUse">
			<stop stop-color="#FFC619"/>
			<stop offset="0.520833" stop-color="#F69020"/>
			<stop offset="1.000000" stop-color="#EA422A"/>
		</linearGradient>
	</defs>
	<rect id="icons8_cash_in_hand 1" rx="0.000000" width="67.000000" height="67.000000" transform="translate(0.500000 0.500000)" fill="#FFFFFF" fill-opacity="0"/>
	<g clip-path="url(#clip51_983)">
		<path id="Vector" d="M46.58 2.84L45.81 3.99L33.74 21.37L23.12 24.52L23.07 24.56L23.03 24.56C21.69 25.06 20.64 25.95 19.84 27.07L19.8 27.11L19.8 27.15L10.62 41.31L10.28 40.2L1.35 42.88L0.08 43.3L0.46 44.58L6.58 65.11L6.96 66.42L8.28 66.04L15.89 63.7L17.21 63.32L16.78 62.05L16.02 59.45L26.68 57.07C29.96 56.33 32.95 54.56 35.06 51.85L35.57 51.21L40.71 54.82L41.81 55.63L42.58 54.48L67.23 18.87L68 17.76L66.85 16.95L47.68 3.65L46.58 2.84ZM47.25 6.62L64.21 18.44L54.48 32.51C55.73 28.53 53.82 23.76 49.76 20.95C49.75 20.94 49.77 20.91 49.76 20.91C49.75 20.89 49.73 20.92 49.72 20.91C47.36 19.24 44.55 18.54 41.98 18.78C40.52 18.92 39.14 19.39 37.95 20.14L47.25 6.62ZM52.95 14.7C52.21 14.69 51.49 15.06 51.04 15.72C50.31 16.77 50.58 18.19 51.63 18.91C52.68 19.63 54.14 19.36 54.86 18.31C55.58 17.26 55.32 15.85 54.27 15.13C53.87 14.85 53.4 14.71 52.95 14.7ZM42.33 21.46C44.21 21.29 46.3 21.8 48.15 23.12L48.19 23.16C52.04 25.81 53.19 30.3 51.25 33.1L51.21 33.1C50.23 34.61 48.6 35.43 46.58 35.53C46.64 33.97 46.09 32.42 44.87 31.28C44.86 31.26 44.84 31.29 44.83 31.28C42.98 29.44 40.09 29.13 37.95 30.55C36.65 28.22 36.56 25.69 37.82 23.88C38.79 22.48 40.44 21.63 42.33 21.46ZM31.32 24.94L24.81 35.18L24.09 36.38L25.28 37.06L29.62 39.65L30.43 40.16L31.19 39.52L38.08 33.95C38.43 33.84 38.71 33.6 38.88 33.27L39.22 33.02C40.31 32.11 41.96 32.19 42.96 33.19L42.96 33.23L43 33.23C44.12 34.25 44.22 35.84 43.26 37.1L32.93 50.15C31.23 52.33 28.8 53.82 26.09 54.44L15.25 56.86L11.43 44.03L11.85 43.86L12.32 43.69L12.58 43.3L22.05 28.68C22.59 27.93 23.14 27.47 23.92 27.15C23.95 27.14 23.98 27.12 24.01 27.11L31.32 24.94ZM34.42 25.11C33.89 27.48 34.43 30.04 35.78 32.3L30.21 36.84L27.87 35.44L34.42 25.11ZM51.76 36.46L41.14 51.85L37.23 49.08L45.39 38.8L45.39 38.75L45.43 38.75C45.56 38.59 45.66 38.42 45.77 38.25C47.98 38.31 50.11 37.74 51.76 36.46ZM8.45 43.56L13.81 61.54L8.79 63.07L3.44 45.13L8.45 43.56Z" fill="url(#paint_linear_51_984_0)" fill-opacity="1.000000" fill-rule="nonzero"/>
	</g>
</svg>
