<svg width="67.000000" height="67.000000" viewBox="0 0 67 67" fill="none" xmlns="http://www.w3.org/2000/svg" xmlns:xlink="http://www.w3.org/1999/xlink">
	<desc>
			Created with Pixso.
	</desc>
	<defs>
		<clipPath id="clip51_977">
			<rect id="icons8_champagne_bottle 1" rx="0.000000" width="66.000000" height="66.000000" transform="translate(0.500000 0.500000)" fill="white" fill-opacity="0"/>
		</clipPath>
		<linearGradient x1="33.504066" y1="2.690430" x2="33.504066" y2="64.310829" id="paint_linear_51_978_0" gradientUnits="userSpaceOnUse">
			<stop stop-color="#FFC619"/>
			<stop offset="0.520833" stop-color="#F69020"/>
			<stop offset="1.000000" stop-color="#EA422A"/>
		</linearGradient>
	</defs>
	<rect id="icons8_champagne_bottle 1" rx="0.000000" width="66.000000" height="66.000000" transform="translate(0.500000 0.500000)" fill="#FFFFFF" fill-opacity="0"/>
	<g clip-path="url(#clip51_977)">
		<path id="Vector" d="M56.9 2.69C55.27 2.69 53.64 3.3 52.4 4.54L49.97 6.97C49.5 7.44 49.44 8.19 49.85 8.73L47 11.57C41.2 17.38 36.35 19.14 31.49 20.76C26.63 22.38 21.67 23.86 16.57 28.97L4.28 41.26C2.15 43.38 2.15 46.87 4.28 49L11.13 55.86L17.99 62.71C20.12 64.84 23.61 64.84 25.73 62.71L38.02 50.42C43.13 45.32 44.61 40.36 46.23 35.5C47.85 30.64 49.61 25.8 55.42 19.99L58.26 17.14C58.8 17.55 59.55 17.49 60.02 17.02L62.45 14.59C64.93 12.11 64.93 8.06 62.45 5.59L61.4 4.54C60.16 3.3 58.54 2.68 56.9 2.69ZM56.9 5.34C57.85 5.35 58.79 5.71 59.52 6.43L60.56 7.48C62.01 8.93 62.01 11.24 60.56 12.69L59.08 14.17L55.95 11.04C55.91 11 55.87 10.97 55.83 10.93L52.82 7.92L54.29 6.43C55.02 5.71 55.96 5.34 56.9 5.34ZM33.5 5.35C32.76 5.35 32.16 5.96 32.16 6.69C32.16 7.43 32.76 8.03 33.5 8.03C34.23 8.03 34.84 7.43 34.84 6.69C34.84 5.96 34.23 5.35 33.5 5.35ZM41.54 9.37C40.8 9.37 40.2 9.98 40.2 10.72C40.2 11.45 40.8 12.06 41.54 12.06C42.27 12.06 42.88 11.45 42.88 10.72C42.88 9.98 42.27 9.37 41.54 9.37ZM51.73 10.63L56.36 15.26L53.52 18.1C51.51 20.11 49.97 22.04 48.7 23.92L43.07 18.29C44.95 17.02 46.88 15.48 48.89 13.47L51.73 10.63ZM40.73 19.74L47.25 26.26C46.1 28.29 45.27 30.24 44.58 32.11L37.31 29.68L34.88 22.41C36.75 21.72 38.7 20.89 40.73 19.74ZM32.35 23.3L34.98 31.17C35.11 31.57 35.42 31.88 35.82 32.01L43.69 34.64C43.69 34.64 43.69 34.65 43.69 34.65C42.05 39.57 40.81 43.84 36.13 48.53L23.84 60.82C22.74 61.92 20.99 61.92 19.89 60.82L6.17 47.1C5.07 46 5.07 44.25 6.17 43.15L18.46 30.86C23.15 26.18 27.42 24.94 32.34 23.3C32.34 23.3 32.35 23.3 32.35 23.3ZM58.96 24.12C58.22 24.12 57.62 24.72 57.62 25.46C57.62 26.19 58.22 26.8 58.96 26.8C59.69 26.8 60.3 26.19 60.3 25.46C60.3 24.72 59.69 24.12 58.96 24.12ZM62.98 29.48C62.24 29.48 61.64 30.08 61.64 30.82C61.64 31.55 62.24 32.16 62.98 32.16C63.71 32.16 64.32 31.55 64.32 30.82C64.32 30.08 63.71 29.48 62.98 29.48ZM56.28 32.16C55.54 32.16 54.94 32.76 54.94 33.5C54.94 34.23 55.54 34.84 56.28 34.84C57.01 34.84 57.62 34.23 57.62 33.5C57.62 32.76 57.01 32.16 56.28 32.16ZM30.82 33.5C29.33 33.5 28.14 34.69 28.14 36.18C28.14 37.66 29.33 38.86 30.82 38.86C32.3 38.86 33.5 37.66 33.5 36.18C33.5 34.69 32.3 33.5 30.82 33.5ZM20.5 34.25C20.15 34.26 19.82 34.4 19.57 34.65L11.13 43.09C10.61 43.61 10.61 44.47 11.13 44.99L22 55.86C22.52 56.37 23.38 56.37 23.9 55.86L32.34 47.41C32.86 46.89 32.86 46.04 32.34 45.52L21.47 34.65C21.22 34.4 20.86 34.25 20.5 34.25ZM20.52 37.49L29.5 46.47L22.95 53.01L13.98 44.04L20.52 37.49Z" fill="url(#paint_linear_51_978_0)" fill-opacity="1.000000" fill-rule="nonzero"/>
	</g>
</svg>
