<svg width="68.000000" height="68.000000" viewBox="0 0 68 68" fill="none" xmlns="http://www.w3.org/2000/svg" xmlns:xlink="http://www.w3.org/1999/xlink">
	<desc>
			Created with Pixso.
	</desc>
	<defs>
		<clipPath id="clip51_989">
			<rect id="icons8_confetti 1" rx="0.000000" width="67.000000" height="67.000000" transform="translate(0.500000 0.500000)" fill="white" fill-opacity="0"/>
		</clipPath>
		<linearGradient x1="36.040245" y1="2.156860" x2="36.040245" y2="62.081860" id="paint_linear_51_990_0" gradientUnits="userSpaceOnUse">
			<stop stop-color="#FFC619"/>
			<stop offset="0.520833" stop-color="#F69020"/>
			<stop offset="1.000000" stop-color="#EA422A"/>
		</linearGradient>
	</defs>
	<rect id="icons8_confetti 1" rx="0.000000" width="67.000000" height="67.000000" transform="translate(0.500000 0.500000)" fill="#FFFFFF" fill-opacity="0"/>
	<g clip-path="url(#clip51_989)">
		<path id="Vector" d="M42.83 2.15L41.87 3.11L37.51 7.47L42.83 12.8L48.16 7.47L42.83 2.15ZM25.83 5.43C25.47 5.44 25.13 5.58 24.87 5.83C24.62 6.09 24.48 6.43 24.48 6.79L24.48 13.6C24.48 13.96 24.62 14.3 24.87 14.56C25.13 14.81 25.47 14.95 25.83 14.96L27.19 14.96C28.82 14.96 29.17 15.44 29.52 16.22C29.87 17.01 29.91 18.18 29.91 19.04C29.91 20.15 29.78 21.31 29.59 22.44C28.4 22.01 27.25 21.76 26.19 21.76C24.98 21.75 23.79 22.08 22.94 22.94C22.57 23.3 22.33 23.74 22.14 24.2L22.12 24.19L7.17 62.08L46.41 48.64L46.4 48.62C46.91 48.43 47.38 48.17 47.77 47.77C48.79 46.76 49.07 45.29 48.91 43.82C48.82 42.9 48.55 41.92 48.17 40.91C49.24 40.84 50.38 40.8 51.68 40.8C53.61 40.8 55.45 41.03 56.64 41.44C57.24 41.65 57.66 41.9 57.86 42.1C58.06 42.29 58.07 42.35 58.07 42.5L58.07 43.52C58.07 43.88 58.22 44.22 58.47 44.48C58.73 44.73 59.07 44.87 59.43 44.88L65.27 44.88C65.46 44.88 65.64 44.84 65.8 44.77C65.97 44.7 66.12 44.59 66.25 44.46C66.38 44.33 66.48 44.18 66.54 44.01C66.61 43.84 66.64 43.66 66.64 43.48C66.64 43.48 66.6 41.8 66.6 41.78C66.6 41.78 66.6 41.78 66.6 41.78C66.62 38.69 64.68 36.3 62.28 34.83C59.88 33.36 56.96 32.64 54.37 32.64C50.06 32.64 46.86 33.75 44.72 34.86C44.05 33.94 43.3 33.01 42.49 32.1C42.98 31.94 43.47 31.8 43.95 31.67C44.9 31.41 45.81 31.2 46.51 31.04C47.22 30.88 47.61 30.81 47.96 30.71C49.06 30.41 50.56 30.03 51.9 29.13C53.24 28.24 54.39 26.62 54.39 24.48C54.39 23.89 54.11 23.56 53.92 23.12L54.39 23.12C57.3 23.12 59.83 20.77 59.83 17.68L59.83 15.81C59.83 15.81 59.85 15.62 59.97 15.41C60.1 15.2 60.2 14.96 61.19 14.96L62.56 14.96C62.92 14.95 63.26 14.81 63.52 14.56C63.77 14.3 63.91 13.96 63.91 13.6L63.91 8.16C63.91 7.8 63.77 7.45 63.52 7.2C63.26 6.94 62.92 6.8 62.56 6.8L60.35 6.8C56.74 6.79 54.5 8.47 53.31 10.06C52.42 11.24 52.15 12.7 51.94 13.95C51.85 14.5 51.87 14.56 51.83 14.96L51.68 14.96C49.33 14.96 47.5 15.8 46.38 17.14C45.26 18.48 44.87 20.17 44.87 21.76L44.87 23.6C42.65 24.34 40.09 25.53 37.9 27.61C36.6 26.51 35.32 25.52 34.05 24.7C35.45 22.24 36.71 18.93 36.71 14.96C36.71 12.61 35.94 10.25 34.31 8.44C32.69 6.63 30.2 5.43 27.09 5.43L27.09 5.43L27.07 5.43L25.83 5.43ZM42.83 6L44.31 7.47L42.83 8.95L41.36 7.47L42.83 6ZM14.27 7.59L13.31 8.55L8.95 12.92L14.27 18.24L19.6 12.92L14.27 7.59ZM27.19 8.17C29.57 8.2 31.19 9.02 32.29 10.25C33.41 11.5 34 13.22 34 14.96C34 17.79 33.17 20.1 32.21 22.09C32.36 21.04 32.64 20.12 32.64 19.04C32.64 18.18 32.68 16.63 32.01 15.12C31.34 13.61 29.65 12.24 27.19 12.24L27.19 8.17ZM60.35 9.52C60.35 9.52 60.35 9.52 60.35 9.52L61.19 9.52L61.19 12.24C59.47 12.24 58.21 13.09 57.66 13.99C57.1 14.89 57.12 15.81 57.12 15.81L57.12 17.68C57.12 19.34 55.91 20.4 54.39 20.4L51.68 20.4C51.43 20.4 51.18 20.46 50.97 20.59C50.76 20.72 50.59 20.9 50.47 21.12C50.36 21.34 50.3 21.59 50.32 21.84C50.33 22.08 50.41 22.32 50.55 22.53C50.55 22.53 50.66 22.66 50.67 22.67C50.68 22.68 50.68 22.68 50.69 22.69C50.7 22.7 50.71 22.71 50.72 22.73C50.75 22.76 50.8 22.81 50.85 22.88C50.95 23 51.09 23.18 51.22 23.38C51.49 23.79 51.68 24.29 51.68 24.48C51.68 25.78 51.21 26.32 50.39 26.87C49.57 27.42 48.34 27.78 47.23 28.1C47.27 28.08 46.65 28.22 45.92 28.39C45.19 28.55 44.25 28.77 43.24 29.04C41.68 29.47 40.13 30.14 38.69 30.86C40.97 28.03 44.09 26.49 46.6 25.78C46.89 25.7 47.14 25.53 47.32 25.3C47.5 25.06 47.6 24.77 47.6 24.48L47.6 21.76C47.6 20.62 47.89 19.59 48.47 18.89C49.05 18.19 49.94 17.68 51.68 17.68L53.04 17.68C53.38 17.67 53.72 17.54 53.97 17.3C54.22 17.06 54.37 16.73 54.39 16.39C54.39 16.39 54.44 15.48 54.62 14.4C54.81 13.31 55.21 12.05 55.48 11.69C55.48 11.69 55.48 11.69 55.48 11.69C56.33 10.56 57.5 9.52 60.35 9.52ZM14.27 11.44L15.75 12.92L14.27 14.39L12.8 12.92L14.27 11.44ZM61.87 23.12L58.48 26.52L61.87 29.92L65.27 26.52L61.87 23.12ZM8.83 24.48L5.43 27.88L8.83 31.28L12.23 27.88L8.83 24.48ZM26.16 24.48C26.88 24.48 27.86 24.74 28.99 25.2C28.6 26.68 28.23 27.78 28.11 28.13C28.02 28.41 28.02 28.72 28.12 29C28.22 29.28 28.4 29.52 28.65 29.69C28.9 29.85 29.2 29.93 29.49 29.91C29.79 29.89 30.07 29.78 30.3 29.58C30.49 29.41 30.82 29.1 31.43 28.41C31.75 28.04 32.13 27.58 32.53 27.04C33.69 27.77 34.9 28.65 36.1 29.66C35.93 29.9 35.74 30.12 35.58 30.38L32.85 34.62C32.68 34.88 32.61 35.2 32.65 35.51C32.68 35.82 32.83 36.11 33.05 36.33C33.28 36.55 33.57 36.68 33.88 36.71C34.2 36.73 34.51 36.65 34.77 36.47L38.86 33.65C39.1 33.48 39.41 33.31 39.77 33.14C40.74 34.19 41.63 35.25 42.41 36.29C41.97 36.63 41.63 36.92 41.57 36.99C41.57 36.99 41.57 36.99 41.57 36.99L38.48 40.04C38.26 40.26 38.12 40.55 38.08 40.86C38.05 41.17 38.12 41.48 38.29 41.74C38.46 42.01 38.72 42.2 39.01 42.3C39.31 42.4 39.63 42.39 39.92 42.27C39.92 42.27 41.71 41.6 45.33 41.16C45.83 42.3 46.13 43.32 46.21 44.1C46.31 45.08 46.12 45.58 45.85 45.85C45.75 45.95 45.6 46.04 45.41 46.11L45.27 46.16C45.03 46.22 44.72 46.25 44.32 46.23C43.47 46.18 42.3 45.86 40.98 45.26C38.33 44.06 35.08 41.76 32.02 38.69C28.95 35.63 26.65 32.38 25.45 29.73C24.85 28.41 24.53 27.24 24.48 26.39C24.46 25.97 24.49 25.65 24.56 25.4C24.57 25.38 24.58 25.36 24.59 25.33C24.66 25.13 24.75 24.97 24.86 24.86C25.08 24.64 25.45 24.47 26.16 24.48ZM22.68 30.16C22.78 30.39 22.87 30.62 22.97 30.86C24.36 33.92 26.83 37.36 30.09 40.62C33.35 43.88 36.79 46.35 39.85 47.74C39.98 47.79 40.09 47.83 40.22 47.89L11.86 57.6L22.68 30.16ZM54.37 35.36C56.44 35.36 58.98 35.99 60.85 37.15C62.73 38.3 63.89 39.79 63.87 41.75C63.87 41.86 63.88 41.99 63.88 42.16L60.64 42.16C60.54 41.38 60.26 40.62 59.73 40.12C59.12 39.54 58.36 39.16 57.53 38.87C55.86 38.3 53.82 38.08 51.68 38.08C48.17 38.08 45.78 38.43 43.7 38.77C44.02 38.48 47.37 35.36 54.37 35.36ZM52.35 51.11L51.39 52.07L47.03 56.44L52.35 61.76L57.68 56.44L52.35 51.11ZM52.35 54.96L53.83 56.44L52.35 57.91L50.88 56.44L52.35 54.96Z" fill="url(#paint_linear_51_990_0)" fill-opacity="1.000000" fill-rule="nonzero"/>
	</g>
</svg>
