<svg width="70.000000" height="70.000000" viewBox="0 0 70 70" fill="none" xmlns="http://www.w3.org/2000/svg" xmlns:xlink="http://www.w3.org/1999/xlink">
	<desc>
			Created with Pixso.
	</desc>
	<defs>
		<clipPath id="clip51_971">
			<rect id="icons8_micro 1" rx="0.000000" width="69.000000" height="69.000000" transform="translate(0.500000 0.500000)" fill="white" fill-opacity="0"/>
		</clipPath>
		<linearGradient x1="35.719612" y1="1.312500" x2="35.719612" y2="68.618484" id="paint_linear_51_972_0" gradientUnits="userSpaceOnUse">
			<stop stop-color="#FFC619"/>
			<stop offset="0.520833" stop-color="#F69020"/>
			<stop offset="1.000000" stop-color="#EA422A"/>
		</linearGradient>
	</defs>
	<rect id="icons8_micro 1" rx="0.000000" width="69.000000" height="69.000000" transform="translate(0.500000 0.500000)" fill="#FFFFFF" fill-opacity="0"/>
	<g clip-path="url(#clip51_971)">
		<path id="Vector" d="M47.59 1.31C39.17 1.31 32.27 8.11 32.11 16.49C31.3 17.76 20.56 34.68 12.11 43.13L12.16 43.18C12.04 43.26 11.63 43.5 11.37 44.18C11.07 44.96 11.31 46.27 12.16 47.11L14.13 49.08L11.76 51.45C9.35 53.86 8.27 56.6 8.35 59.19C8.43 61.78 9.59 64.15 11.37 65.84C14.92 69.22 21.12 70 25.72 65.4L44.93 46.2C48.66 42.46 52.75 43.23 55.25 45.67C56.5 46.89 57.31 48.54 57.35 50.31C57.39 52.07 56.72 54 54.77 55.95L45.89 64.83C45.31 65.41 45.31 66.35 45.89 66.93C46.47 67.51 47.41 67.51 47.99 66.93L56.83 58.05C59.24 55.63 60.34 52.86 60.28 50.26C60.23 47.67 59.07 45.28 57.31 43.57C55.55 41.86 53.11 40.8 50.53 40.77C47.94 40.74 45.23 41.74 42.87 44.1L23.66 63.3C20.08 66.89 15.96 66.11 13.43 63.7C12.16 62.49 11.34 60.84 11.28 59.1C11.23 57.36 11.87 55.45 13.82 53.5L13.95 53.41L16.18 51.18L17.23 52.19C18.07 53.03 19.22 53.34 20.03 53.11C20.74 52.91 20.98 52.44 21.08 52.32L21.17 52.41C29.41 44.17 46.62 33.1 47.9 32.28C56.29 32.12 63.08 25.22 63.08 16.79C63.08 8.27 56.12 1.31 47.59 1.31ZM47.59 4.28C54.52 4.28 60.11 9.86 60.11 16.79C60.11 19.57 59.22 22.12 57.7 24.19L40.2 6.69C42.27 5.17 44.82 4.28 47.59 4.28ZM38.06 8.7L55.73 26.33C53.55 28.2 50.71 29.31 47.59 29.31C40.66 29.31 35.08 23.73 35.08 16.79C35.08 13.69 36.2 10.88 38.06 8.7ZM32.68 20.86C34.13 26.15 38.31 30.34 43.61 31.76C37.91 35.52 26.03 43.6 19.29 50.31C19.27 50.28 19.27 50.29 19.2 50.22L14.13 45.1C20.97 38.24 28.96 26.55 32.68 20.86ZM32.46 30.14C32.04 30.14 31.59 30.3 31.28 30.62L27.51 34.43C26.87 35.07 26.87 36.11 27.51 36.75L27.64 36.88C28.28 37.52 29.32 37.52 29.96 36.88L33.77 33.07C34.41 32.44 34.4 31.39 33.77 30.75L33.59 30.62C33.28 30.3 32.88 30.14 32.46 30.14Z" fill="url(#paint_linear_51_972_0)" fill-opacity="1.000000" fill-rule="nonzero"/>
	</g>
</svg>
