<svg width="16.000000" height="16.000000" viewBox="0 0 16 16" fill="none" xmlns="http://www.w3.org/2000/svg" xmlns:xlink="http://www.w3.org/1999/xlink">
	<desc>
			Created with Pixso.
	</desc>
	<defs>
		<clipPath id="clip51_1139">
			<rect id="icons8_checked 1" rx="0.000000" width="15.000000" height="15.000000" transform="translate(0.500000 0.500000)" fill="white" fill-opacity="0"/>
		</clipPath>
	</defs>
	<rect id="icons8_checked 1" rx="0.000000" width="15.000000" height="15.000000" transform="translate(0.500000 0.500000)" fill="#FFFFFF" fill-opacity="0"/>
	<g clip-path="url(#clip51_1139)">
		<path id="Vector" d="M7.67 0.95C4.09 0.85 1.1 3.69 1 7.27C0.9 10.85 3.73 13.85 7.32 13.95C10.9 14.05 13.89 11.21 14 7.63C14.01 6.88 13.9 6.16 13.68 5.48L12.86 6.26C12.96 6.69 13.01 7.14 13 7.6C12.91 10.64 10.37 13.03 7.34 12.95C4.31 12.86 1.91 10.33 2 7.3C2.08 4.26 4.62 1.87 7.65 1.95C8.64 1.98 9.56 2.27 10.35 2.76L11.1 2.05C10.12 1.39 8.95 0.99 7.67 0.95ZM12.5 2.79L6.5 8.79L4.85 7.14L4.5 6.79L3.79 7.5L4.14 7.85L6.5 10.2L13.2 3.5L12.5 2.79Z" fill="#F69020" fill-opacity="1.000000" fill-rule="nonzero"/>
	</g>
</svg>
