<svg width="19.000000" height="19.000000" viewBox="0 0 19 19" fill="none" xmlns="http://www.w3.org/2000/svg" xmlns:xlink="http://www.w3.org/1999/xlink">
	<desc>
			Created with Pixso.
	</desc>
	<defs>
		<clipPath id="clip51_1108">
			<rect id="icons8_expand 1" rx="0.000000" width="18.000000" height="18.000000" transform="translate(0.500000 0.500000)" fill="white" fill-opacity="0"/>
		</clipPath>
	</defs>
	<rect id="icons8_expand 1" rx="0.000000" width="18.000000" height="18.000000" transform="translate(0.500000 0.500000)" fill="#FFFFFF" fill-opacity="0"/>
	<g clip-path="url(#clip51_1108)">
		<path id="Vector" d="M1.89 1.89L1.89 6.83C1.89 6.94 1.91 7.04 1.95 7.13C1.99 7.22 2.04 7.31 2.11 7.38C2.18 7.45 2.27 7.51 2.36 7.55C2.45 7.59 2.55 7.61 2.65 7.61C2.76 7.61 2.86 7.59 2.95 7.55C3.04 7.51 3.13 7.45 3.2 7.38C3.27 7.31 3.32 7.22 3.36 7.13C3.4 7.04 3.42 6.94 3.41 6.83L3.41 4.49L7.63 8.7C7.7 8.78 7.78 8.83 7.87 8.87C7.97 8.91 8.07 8.93 8.17 8.94C8.27 8.94 8.37 8.92 8.46 8.88C8.56 8.84 8.64 8.78 8.71 8.71C8.78 8.64 8.84 8.56 8.88 8.46C8.92 8.37 8.94 8.27 8.94 8.17C8.93 8.07 8.91 7.97 8.87 7.87C8.83 7.78 8.78 7.7 8.7 7.63L4.49 3.41L6.84 3.41C6.94 3.42 7.04 3.4 7.13 3.36C7.22 3.32 7.31 3.27 7.38 3.2C7.45 3.13 7.51 3.04 7.55 2.95C7.59 2.86 7.61 2.76 7.61 2.65C7.61 2.55 7.59 2.45 7.55 2.36C7.51 2.27 7.45 2.18 7.38 2.11C7.31 2.04 7.22 1.99 7.13 1.95C7.04 1.91 6.94 1.89 6.84 1.89L1.89 1.89ZM12.15 1.89C12.05 1.89 11.95 1.91 11.86 1.95C11.77 1.99 11.68 2.04 11.61 2.11C11.54 2.18 11.48 2.27 11.44 2.36C11.4 2.45 11.38 2.55 11.38 2.65C11.38 2.76 11.4 2.86 11.44 2.95C11.48 3.04 11.54 3.13 11.61 3.2C11.68 3.27 11.77 3.32 11.86 3.36C11.95 3.4 12.05 3.42 12.15 3.41L14.47 3.41L10.29 7.63C10.21 7.7 10.15 7.78 10.12 7.88C10.08 7.97 10.05 8.07 10.05 8.17C10.05 8.27 10.07 8.37 10.11 8.47C10.15 8.56 10.21 8.64 10.28 8.72C10.35 8.79 10.44 8.84 10.53 8.88C10.62 8.92 10.72 8.94 10.83 8.94C10.93 8.93 11.03 8.91 11.12 8.87C11.21 8.83 11.29 8.77 11.36 8.7L15.58 4.46L15.58 6.83C15.57 6.94 15.59 7.04 15.63 7.13C15.67 7.22 15.72 7.31 15.79 7.38C15.86 7.45 15.95 7.51 16.04 7.55C16.13 7.59 16.23 7.61 16.34 7.61C16.44 7.61 16.54 7.59 16.63 7.55C16.72 7.51 16.81 7.45 16.88 7.38C16.95 7.31 17 7.22 17.04 7.13C17.08 7.04 17.1 6.94 17.1 6.83L17.1 1.89L12.15 1.89ZM8.15 10.06C7.96 10.06 7.77 10.14 7.63 10.29L3.41 14.47L3.41 12.16C3.42 12.05 3.4 11.95 3.36 11.86C3.32 11.77 3.27 11.68 3.2 11.61C3.13 11.54 3.04 11.48 2.95 11.44C2.86 11.4 2.76 11.38 2.65 11.38C2.55 11.38 2.45 11.4 2.36 11.44C2.27 11.48 2.18 11.54 2.11 11.61C2.04 11.68 1.99 11.77 1.95 11.86C1.91 11.95 1.89 12.05 1.89 12.16L1.89 17.1L6.84 17.1C6.94 17.1 7.04 17.08 7.13 17.04C7.22 17 7.31 16.95 7.38 16.88C7.45 16.81 7.51 16.72 7.55 16.63C7.59 16.54 7.61 16.44 7.61 16.34C7.61 16.23 7.59 16.13 7.55 16.04C7.51 15.95 7.45 15.86 7.38 15.79C7.31 15.72 7.22 15.67 7.13 15.63C7.04 15.59 6.94 15.57 6.84 15.58L4.46 15.58L8.7 11.36C8.81 11.26 8.89 11.12 8.92 10.97C8.95 10.82 8.93 10.67 8.87 10.52C8.81 10.38 8.71 10.26 8.59 10.18C8.46 10.1 8.31 10.05 8.15 10.06ZM10.82 10.06C10.67 10.06 10.52 10.1 10.39 10.19C10.27 10.27 10.17 10.39 10.11 10.53C10.06 10.67 10.04 10.83 10.07 10.97C10.1 11.12 10.18 11.26 10.29 11.36L14.5 15.58L12.15 15.58C12.05 15.57 11.95 15.59 11.86 15.63C11.77 15.67 11.68 15.72 11.61 15.79C11.54 15.86 11.48 15.95 11.44 16.04C11.4 16.13 11.38 16.23 11.38 16.34C11.38 16.44 11.4 16.54 11.44 16.63C11.48 16.72 11.54 16.81 11.61 16.88C11.68 16.95 11.77 17 11.86 17.04C11.95 17.08 12.05 17.1 12.15 17.1L17.1 17.1L17.1 12.16C17.1 12.05 17.08 11.95 17.04 11.86C17 11.77 16.95 11.68 16.88 11.61C16.81 11.54 16.72 11.48 16.63 11.44C16.54 11.4 16.44 11.38 16.34 11.38C16.23 11.38 16.13 11.4 16.04 11.44C15.95 11.48 15.86 11.54 15.79 11.61C15.72 11.68 15.67 11.77 15.63 11.86C15.59 11.95 15.57 12.05 15.58 12.16L15.58 14.5L11.36 10.29C11.29 10.21 11.21 10.16 11.11 10.12C11.02 10.08 10.92 10.06 10.82 10.06Z" fill="#FFFFFF" fill-opacity="1.000000" fill-rule="nonzero"/>
	</g>
</svg>
