<svg width="50.000000" height="50.000000" viewBox="0 0 50 50" fill="none" xmlns="http://www.w3.org/2000/svg" xmlns:xlink="http://www.w3.org/1999/xlink">
	<desc>
			Created with Pixso.
	</desc>
	<defs>
		<clipPath id="clip51_1080">
			<rect id="icons8_eye 1" rx="0.000000" width="49.000000" height="49.000000" transform="translate(0.500000 0.500000)" fill="white" fill-opacity="0"/>
		</clipPath>
	</defs>
	<rect id="icons8_eye 1" rx="0.000000" width="49.000000" height="49.000000" transform="translate(0.500000 0.500000)" fill="#FFFFFF" fill-opacity="0"/>
	<g clip-path="url(#clip51_1080)">
		<path id="Vector" d="M25 12C11.67 12 1.24 24.34 1.24 24.34C1.08 24.53 1 24.76 1 25C1 25.23 1.08 25.46 1.24 25.65C1.24 25.65 11.67 38 25 38C38.33 38 48.75 25.65 48.75 25.65C48.91 25.46 49 25.23 49 25C49 24.76 48.91 24.53 48.75 24.34C48.75 24.34 38.33 12 25 12ZM25 14C27.66 14 30.21 14.55 32.56 15.4C34.14 17.2 35 19.39 35 22C35 27.56 30.56 32 25 32C19.43 32 15 27.56 15 22C15 19.52 15.95 17.21 17.44 15.4C19.79 14.55 22.33 14 25 14ZM14.19 16.81C13.44 18.39 13 20.15 13 22C13 28.63 18.36 34 25 34C31.63 34 37 28.63 37 22C37 20.13 36.6 18.4 35.86 16.84C41.52 19.71 45.58 23.89 46.6 25C45.01 26.72 35.99 36 25 36C14 36 4.98 26.72 3.39 25C4.41 23.89 8.5 19.68 14.19 16.81ZM25 17C23.67 17 22.4 17.52 21.46 18.46C20.52 19.4 20 20.67 20 22C20 23.32 20.52 24.59 21.46 25.53C22.4 26.47 23.67 27 25 27C26.32 27 27.59 26.47 28.53 25.53C29.47 24.59 30 23.32 30 22C30 20.67 29.47 19.4 28.53 18.46C27.59 17.52 26.32 17 25 17Z" fill="#FFFFFF" fill-opacity="1.000000" fill-rule="nonzero"/>
	</g>
</svg>
