<svg width="50.000000" height="50.000000" viewBox="0 0 50 50" fill="none" xmlns="http://www.w3.org/2000/svg" xmlns:xlink="http://www.w3.org/1999/xlink">
	<desc>
			Created with Pixso.
	</desc>
	<defs>
		<clipPath id="clip51_1471">
			<rect id="icons8_verified_account 1" rx="0.000000" width="49.000000" height="49.000000" transform="translate(0.500000 0.500000)" fill="white" fill-opacity="0"/>
		</clipPath>
	</defs>
	<rect id="icons8_verified_account 1" rx="0.000000" width="49.000000" height="49.000000" transform="translate(0.500000 0.500000)" fill="#FFFFFF" fill-opacity="0"/>
	<g clip-path="url(#clip51_1471)">
		<path id="Vector" d="M48 25C48 21.65 46.09 18.73 43.32 17.26C44.08 14.37 43.34 11.16 41.09 8.9C39.4 7.22 37.18 6.38 34.97 6.38C34.22 6.38 33.46 6.48 32.73 6.67C31.26 3.9 28.34 2 25 2C21.65 2 18.73 3.9 17.26 6.67C16.52 6.48 15.77 6.38 15.02 6.38C12.8 6.38 10.59 7.22 8.9 8.9C6.65 11.16 5.91 14.37 6.67 17.26C3.9 18.73 2 21.65 2 25C2 28.34 3.9 31.26 6.67 32.74C5.91 35.62 6.65 38.83 8.9 41.09C10.59 42.77 12.81 43.61 15.02 43.61C15.78 43.61 16.53 43.51 17.26 43.32C18.73 46.09 21.65 48 25 48C28.34 48 31.26 46.09 32.74 43.32C33.47 43.51 34.22 43.61 34.97 43.61C37.19 43.61 39.4 42.77 41.09 41.09C43.34 38.83 44.08 35.62 43.32 32.74C46.09 31.26 48 28.34 48 25ZM21.71 32.98L14.43 25.7L15.85 24.29L21.71 30.15L34.14 17.72L35.56 19.13L21.71 32.98Z" fill="#606571" fill-opacity="1.000000" fill-rule="nonzero"/>
	</g>
</svg>
