<svg width="29.000000" height="29.000000" viewBox="0 0 29 29" fill="none" xmlns="http://www.w3.org/2000/svg" xmlns:xlink="http://www.w3.org/1999/xlink">
	<desc>
			Created with Pixso.
	</desc>
	<defs>
		<clipPath id="clip51_1027">
			<rect id="icons8_shake_phone 1" rx="0.000000" width="28.000000" height="28.000000" transform="translate(0.500000 0.500000)" fill="white" fill-opacity="0"/>
		</clipPath>
	</defs>
	<rect id="icons8_shake_phone 1" rx="0.000000" width="28.000000" height="28.000000" transform="translate(0.500000 0.500000)" fill="#FFFFFF" fill-opacity="0"/>
	<g clip-path="url(#clip51_1027)">
		<path id="Vector" d="M16.69 1.17C16.54 1.18 16.4 1.2 16.25 1.25L6.03 4.15C4.88 4.47 4.2 5.68 4.53 6.83L9.31 23.65C9.32 23.7 9.34 23.76 9.37 23.81L10.05 26.26C10.38 27.41 11.59 28.07 12.74 27.74L22.96 24.84C24.11 24.52 24.79 23.31 24.46 22.16L23.79 19.81C23.8 19.67 23.76 19.54 23.68 19.43L18.94 2.73C18.69 1.87 17.96 1.28 17.12 1.17C16.98 1.15 16.84 1.16 16.69 1.17ZM16.78 2.32C17.25 2.28 17.69 2.58 17.83 3.06L22.45 19.37L10.27 22.81L5.65 6.5C5.5 5.96 5.81 5.41 6.36 5.25L16.58 2.35C16.65 2.33 16.71 2.32 16.78 2.32ZM22.14 6.18C21.98 6.2 21.83 6.3 21.74 6.45C21.65 6.6 21.63 6.78 21.69 6.94L24.59 17.16C24.68 17.47 25.01 17.65 25.32 17.56C25.63 17.47 25.8 17.14 25.71 16.83L22.81 6.61C22.75 6.35 22.52 6.18 22.25 6.18C22.23 6.18 22.22 6.18 22.2 6.18C22.18 6.18 22.16 6.18 22.14 6.18ZM25.42 8.01C25.26 8.03 25.11 8.14 25.02 8.28C24.93 8.43 24.91 8.61 24.97 8.77L26.42 13.88C26.51 14.19 26.84 14.37 27.15 14.28C27.46 14.19 27.64 13.86 27.54 13.55L26.09 8.44C26.03 8.19 25.8 8.01 25.53 8.01C25.52 8.01 25.5 8.01 25.48 8.01C25.46 8.01 25.44 8.01 25.42 8.01ZM3.78 11.4C3.77 11.4 3.75 11.41 3.73 11.41C3.57 11.44 3.42 11.54 3.33 11.68C3.25 11.83 3.23 12 3.28 12.16L6.18 22.38C6.27 22.69 6.59 22.87 6.9 22.78C7.21 22.69 7.39 22.36 7.3 22.05L4.4 11.83C4.33 11.57 4.1 11.4 3.84 11.4C3.82 11.4 3.8 11.4 3.78 11.4ZM1.95 14.68C1.93 14.68 1.92 14.69 1.9 14.69C1.73 14.72 1.59 14.82 1.5 14.96C1.42 15.11 1.4 15.28 1.44 15.44L2.89 20.55C2.99 20.86 3.31 21.04 3.62 20.95C3.93 20.86 4.11 20.53 4.02 20.22L2.57 15.11C2.5 14.86 2.27 14.68 2.01 14.68C1.99 14.68 1.97 14.68 1.95 14.68ZM22.78 20.49L23.34 22.49C23.49 23.03 23.18 23.58 22.63 23.74L12.41 26.64C11.86 26.79 11.31 26.48 11.16 25.93L10.6 23.94L22.78 20.49ZM17.05 22.91C17 22.91 16.94 22.91 16.89 22.92C16.46 23.04 16.22 23.5 16.34 23.92C16.46 24.34 16.9 24.58 17.32 24.46C17.75 24.34 17.99 23.91 17.87 23.49C17.76 23.11 17.42 22.88 17.05 22.91Z" fill="#606571" fill-opacity="1.000000" fill-rule="nonzero"/>
	</g>
</svg>
