<svg width="34.000000" height="34.000000" viewBox="0 0 34 34" fill="none" xmlns="http://www.w3.org/2000/svg" xmlns:xlink="http://www.w3.org/1999/xlink">
	<desc>
			Created with Pixso.
	</desc>
	<defs>
		<clipPath id="clip51_1022">
			<rect id="icons8_marker 1" rx="0.000000" width="33.000000" height="33.000000" transform="translate(0.500000 0.500000)" fill="white" fill-opacity="0"/>
		</clipPath>
	</defs>
	<rect id="icons8_marker 1" rx="0.000000" width="33.000000" height="33.000000" transform="translate(0.500000 0.500000)" fill="#FFFFFF" fill-opacity="0"/>
	<g clip-path="url(#clip51_1022)">
		<path id="Vector" d="M17 2.71C11.73 2.71 7.47 6.97 7.47 12.24C7.47 16.59 9.76 21.25 12 24.86C14.24 28.47 16.48 31.04 16.48 31.04C16.55 31.12 16.63 31.18 16.71 31.22C16.8 31.26 16.9 31.28 17 31.28C17.1 31.27 17.19 31.25 17.28 31.21C17.37 31.17 17.45 31.11 17.51 31.04C17.51 31.04 19.75 28.42 21.99 24.78C24.23 21.15 26.52 16.5 26.52 12.24C26.52 6.97 22.26 2.71 17 2.71ZM17 4.07C21.53 4.07 25.16 7.7 25.16 12.24C25.16 16 23.02 20.53 20.84 24.07C19.07 26.94 17.59 28.77 16.99 29.51C16.39 28.78 14.92 26.99 13.15 24.14C10.97 20.63 8.83 16.11 8.83 12.24C8.83 7.7 12.46 4.07 17 4.07ZM17 7.47C14.38 7.47 12.23 9.62 12.23 12.24C12.23 14.85 14.38 17 17 17C19.61 17 21.75 14.85 21.75 12.24C21.75 9.62 19.61 7.47 17 7.47ZM17 8.83C18.87 8.83 20.39 10.36 20.39 12.24C20.39 14.11 18.87 15.64 17 15.64C15.12 15.64 13.6 14.11 13.6 12.24C13.6 10.36 15.12 8.83 17 8.83Z" fill="#606571" fill-opacity="1.000000" fill-rule="nonzero"/>
	</g>
</svg>
