<svg width="21.000000" height="21.000000" viewBox="0 0 21 21" fill="none" xmlns="http://www.w3.org/2000/svg" xmlns:xlink="http://www.w3.org/1999/xlink">
	<desc>
			Created with Pixso.
	</desc>
	<defs>
		<clipPath id="clip51_1103">
			<rect id="icons8_room 1" rx="0.000000" width="20.000000" height="20.000000" transform="translate(0.500000 0.500000)" fill="white" fill-opacity="0"/>
		</clipPath>
	</defs>
	<rect id="icons8_room 1" rx="0.000000" width="20.000000" height="20.000000" transform="translate(0.500000 0.500000)" fill="#FFFFFF" fill-opacity="0"/>
	<g clip-path="url(#clip51_1103)">
		<path id="Vector" d="M10.08 0.97L1.12 4.23C0.96 4.28 0.84 4.45 0.84 4.61L0.84 15.61L10.08 12.31L10.08 0.97ZM10.92 0.97L10.92 12.31L13.44 13.19L13.44 6.12L17.21 7.52L17.21 14.52L20.16 15.57L20.16 4.61C20.16 4.45 20.03 4.28 19.87 4.23L10.92 0.97ZM7.56 5.87L7.56 10.11L3.78 11.58L3.78 7.38L7.56 5.87ZM10.5 13.05L1.18 16.37L10.36 20.12C10.41 20.12 10.45 20.15 10.53 20.15C10.58 20.15 10.66 20.16 10.71 20.12L19.81 16.37L10.5 13.05Z" fill="#FFFFFF" fill-opacity="1.000000" fill-rule="nonzero"/>
	</g>
</svg>
