<svg width="38.000000" height="38.000000" viewBox="0 0 38 38" fill="none" xmlns="http://www.w3.org/2000/svg" xmlns:xlink="http://www.w3.org/1999/xlink">
	<desc>
			Created with Pixso.
	</desc>
	<defs>
		<clipPath id="clip51_1277">
			<rect id="icons8_calendar 1" rx="0.000000" width="37.000000" height="37.000000" transform="translate(0.500000 0.500000)" fill="white" fill-opacity="0"/>
		</clipPath>
		<linearGradient x1="19.000019" y1="0.000000" x2="19.000019" y2="36.480000" id="paint_linear_51_1278_0" gradientUnits="userSpaceOnUse">
			<stop stop-color="#FFC619"/>
			<stop offset="0.473958" stop-color="#F69020"/>
			<stop offset="1.000000" stop-color="#EA422A"/>
		</linearGradient>
	</defs>
	<rect id="icons8_calendar 1" rx="0.000000" width="37.000000" height="37.000000" transform="translate(0.500000 0.500000)" fill="#FFFFFF" fill-opacity="0"/>
	<g clip-path="url(#clip51_1277)">
		<path id="Vector" d="M9.12 0C8.72 0 8.31 0.14 8.03 0.43C7.74 0.71 7.6 1.12 7.6 1.52L7.6 3.04L3.04 3.04C2.64 3.04 2.23 3.18 1.95 3.47C1.66 3.75 1.52 4.16 1.52 4.56L1.52 10.63L1.52 34.96C1.52 35.35 1.66 35.76 1.95 36.04C2.23 36.33 2.64 36.48 3.04 36.48L34.96 36.48C35.35 36.48 35.76 36.33 36.04 36.04C36.33 35.76 36.48 35.35 36.48 34.96L36.48 10.63L36.48 4.56C36.48 4.16 36.33 3.75 36.04 3.47C35.76 3.18 35.35 3.04 34.96 3.04L30.39 3.04L30.39 1.52C30.39 1.12 30.25 0.71 29.96 0.43C29.68 0.14 29.27 0 28.87 0L27.35 0C26.96 0 26.55 0.14 26.27 0.43C25.98 0.71 25.83 1.12 25.83 1.52L25.83 3.04L12.16 3.04L12.16 1.52C12.16 1.12 12.01 0.71 11.72 0.43C11.44 0.14 11.03 0 10.64 0L9.12 0ZM9.12 1.52L10.64 1.52L10.64 6.08L9.12 6.08L9.12 1.52ZM27.35 1.52L28.87 1.52L28.87 3.67C28.86 3.75 28.86 3.83 28.87 3.92L28.87 6.08L27.35 6.08L27.35 1.52ZM3.04 4.56L7.6 4.56L7.6 6.08C7.6 6.47 7.74 6.88 8.03 7.16C8.31 7.45 8.72 7.6 9.12 7.6L10.64 7.6C11.03 7.6 11.44 7.45 11.72 7.16C12.01 6.88 12.16 6.47 12.16 6.08L12.16 4.56L25.83 4.56L25.83 6.08C25.83 6.47 25.98 6.88 26.27 7.16C26.55 7.45 26.96 7.6 27.35 7.6L28.87 7.6C29.27 7.6 29.68 7.45 29.96 7.16C30.25 6.88 30.39 6.47 30.39 6.08L30.39 4.56L34.96 4.56L34.96 9.87L3.04 9.87L3.04 4.56ZM3.04 11.39L34.96 11.39L34.96 34.96L3.04 34.96L3.04 11.39ZM13.66 14.42C13.63 14.43 13.59 14.43 13.55 14.43L8.35 14.43C8.15 14.43 7.96 14.52 7.82 14.66C7.68 14.8 7.6 14.99 7.6 15.2L7.6 20.39C7.58 20.47 7.58 20.55 7.6 20.64L7.6 25.71C7.58 25.79 7.58 25.87 7.6 25.96L7.6 31.15C7.6 31.36 7.68 31.55 7.82 31.69C7.96 31.83 8.15 31.91 8.35 31.91L13.55 31.91C13.63 31.93 13.71 31.93 13.8 31.91L18.87 31.91C18.95 31.93 19.03 31.93 19.12 31.91L22.79 31.91L24.19 31.91C24.27 31.93 24.35 31.93 24.44 31.91L29.64 31.91C29.84 31.91 30.03 31.83 30.17 31.69C30.31 31.55 30.39 31.36 30.39 31.15L30.39 25.96C30.41 25.88 30.41 25.8 30.39 25.71L30.39 20.64C30.41 20.56 30.41 20.48 30.39 20.39L30.39 15.2C30.39 14.99 30.31 14.8 30.17 14.66C30.03 14.52 29.84 14.43 29.64 14.43L24.44 14.43C24.36 14.42 24.28 14.42 24.19 14.43L19.12 14.43C19.04 14.42 18.96 14.42 18.87 14.43L13.8 14.43C13.76 14.43 13.71 14.42 13.66 14.42ZM9.12 15.96L12.91 15.96L12.91 19.76L9.12 19.76L9.12 15.96ZM14.43 15.96L18.24 15.96L18.24 19.76L14.43 19.76L14.43 15.96ZM19.76 15.96L23.56 15.96L23.56 19.76L19.76 19.76L19.76 15.96ZM25.08 15.96L28.87 15.96L28.87 19.76L25.08 19.76L25.08 15.96ZM9.12 21.28L12.91 21.28L12.91 25.08L9.12 25.08L9.12 21.28ZM14.43 21.28L18.24 21.28L18.24 25.08L14.43 25.08L14.43 21.28ZM19.76 21.28L23.56 21.28L23.56 25.08L19.76 25.08L19.76 21.28ZM25.08 21.28L28.87 21.28L28.87 25.08L25.08 25.08L25.08 21.28ZM9.12 26.6L12.91 26.6L12.91 30.39L9.12 30.39L9.12 26.6ZM14.43 26.6L18.24 26.6L18.24 30.39L14.43 30.39L14.43 26.6ZM19.76 26.6L23.56 26.6L23.56 30.39L22.79 30.39L19.76 30.39L19.76 26.6ZM25.08 26.6L28.87 26.6L28.87 30.39L25.08 30.39L25.08 26.6Z" fill="url(#paint_linear_51_1278_0)" fill-opacity="1.000000" fill-rule="nonzero"/>
	</g>
</svg>
