<svg width="41.000000" height="41.000000" viewBox="0 0 41 41" fill="none" xmlns="http://www.w3.org/2000/svg" xmlns:xlink="http://www.w3.org/1999/xlink">
	<desc>
			Created with Pixso.
	</desc>
	<defs>
		<clipPath id="clip51_1239">
			<rect id="icons8_crowd 1" rx="0.000000" width="40.000000" height="40.000000" transform="translate(0.500000 0.500000)" fill="white" fill-opacity="0"/>
		</clipPath>
		<linearGradient x1="20.484713" y1="2.459961" x2="20.484713" y2="38.550777" id="paint_linear_51_1240_0" gradientUnits="userSpaceOnUse">
			<stop stop-color="#FFC619"/>
			<stop offset="0.479167" stop-color="#F69020"/>
			<stop offset="1.000000" stop-color="#EA422A"/>
		</linearGradient>
	</defs>
	<rect id="icons8_crowd 1" rx="0.000000" width="40.000000" height="40.000000" transform="translate(0.500000 0.500000)" fill="#FFFFFF" fill-opacity="0"/>
	<g clip-path="url(#clip51_1239)">
		<path id="Vector" d="M30.28 2.45C28.74 2.48 27.5 2.93 26.66 3.74C25.81 4.56 25.42 5.69 25.39 6.87C25.39 6.87 25.39 6.87 25.39 6.87C25.37 7.64 25.53 8.34 25.72 9.11C25.5 9.43 25.36 9.81 25.42 10.33C25.42 10.33 25.42 10.33 25.42 10.33C25.49 10.91 25.65 11.37 25.92 11.71C26.04 11.87 26.22 11.88 26.38 11.98C26.55 12.53 26.78 13.05 27.1 13.47C27.3 13.74 27.51 13.98 27.7 14.18C27.75 14.22 27.8 14.25 27.84 14.29C27.84 14.71 27.85 15.1 27.82 15.53C27.72 15.75 27.41 16.01 26.76 16.28C26.39 16.43 25.95 16.58 25.49 16.74C25.51 16.52 25.53 16.29 25.53 16.02C25.53 16.02 25.53 16.02 25.53 16.02C25.54 15.25 25.41 14.43 24.98 13.7C24.58 13.03 23.84 12.52 22.92 12.33C22.34 11.75 21.52 11.48 20.59 11.48C20.59 11.48 20.58 11.48 20.58 11.48C19.04 11.5 17.8 11.95 16.96 12.76C16.11 13.58 15.72 14.71 15.69 15.89C15.69 15.89 15.69 15.89 15.69 15.89C15.69 16.18 15.71 16.46 15.75 16.74C15.19 16.55 14.65 16.38 14.2 16.21C13.52 15.95 13.21 15.69 13.13 15.53C13.1 15.1 13.1 14.71 13.1 14.3C13.14 14.26 13.2 14.23 13.24 14.18C13.43 13.99 13.64 13.75 13.85 13.48C14.17 13.06 14.4 12.53 14.57 11.98C14.73 11.89 14.91 11.88 15.03 11.72C15.3 11.37 15.46 10.92 15.53 10.33L15.53 10.33C15.6 9.82 15.45 9.42 15.23 9.1C15.38 8.53 15.54 7.9 15.55 7.01C15.56 6.23 15.43 5.41 15 4.69C14.6 4.01 13.86 3.5 12.94 3.32C12.36 2.73 11.54 2.46 10.61 2.46C10.61 2.46 10.6 2.46 10.6 2.46C9.06 2.49 7.82 2.94 6.98 3.75C6.13 4.56 5.74 5.69 5.71 6.88C5.71 6.88 5.71 6.88 5.71 6.88C5.69 7.65 5.85 8.34 6.04 9.11C5.82 9.43 5.68 9.82 5.74 10.33C5.74 10.33 5.74 10.33 5.74 10.33C5.81 10.92 5.97 11.37 6.24 11.72C6.36 11.88 6.55 11.89 6.71 11.98C6.87 12.53 7.1 13.06 7.42 13.48C7.62 13.75 7.83 13.99 8.02 14.18C8.07 14.23 8.12 14.25 8.16 14.3C8.16 14.71 8.17 15.1 8.14 15.54C8.05 15.72 7.86 15.92 7.38 16.15C6.88 16.39 6.17 16.61 5.43 16.88C4.68 17.15 3.89 17.48 3.19 18C2.48 18.53 1.89 19.3 1.66 20.32C1.63 20.43 1.62 20.54 1.63 20.65C1.65 20.76 1.69 20.86 1.74 20.96C1.8 21.05 1.88 21.14 1.97 21.2C2.06 21.27 2.16 21.31 2.27 21.34C2.37 21.36 2.49 21.36 2.6 21.34C2.7 21.32 2.81 21.28 2.9 21.22C2.99 21.16 3.07 21.08 3.13 20.99C3.19 20.89 3.23 20.79 3.25 20.68C3.39 20.06 3.7 19.67 4.17 19.31C4.64 18.96 5.29 18.67 5.99 18.42C6.68 18.17 7.41 17.95 8.08 17.63C8.75 17.31 9.42 16.87 9.72 16.08C9.74 16.01 9.76 15.94 9.77 15.86C9.83 15.1 9.81 14.56 9.81 13.93C9.81 13.79 9.77 13.64 9.69 13.51C9.61 13.38 9.5 13.28 9.37 13.21C9.5 13.28 9.33 13.17 9.19 13.03C9.06 12.89 8.88 12.7 8.72 12.49C8.4 12.06 8.15 11.52 8.14 11.39C8.12 11.22 8.05 11.06 7.94 10.94C7.83 10.81 7.68 10.72 7.52 10.68C7.5 10.64 7.41 10.5 7.37 10.14C7.35 10.05 7.37 10 7.38 9.98C7.51 9.88 7.61 9.75 7.66 9.59C7.72 9.44 7.72 9.28 7.68 9.12C7.45 8.2 7.33 7.63 7.35 6.92C7.37 6.05 7.63 5.4 8.12 4.93C8.6 4.46 9.38 4.13 10.61 4.1L10.62 4.1C11.44 4.1 11.87 4.37 11.92 4.46C11.98 4.57 12.07 4.66 12.17 4.73C12.28 4.8 12.39 4.85 12.52 4.87C13.12 4.95 13.38 5.17 13.59 5.53C13.81 5.88 13.92 6.42 13.91 6.99C13.9 7.92 13.75 8.62 13.6 9.06C13.55 9.23 13.55 9.4 13.6 9.57C13.65 9.73 13.75 9.88 13.89 9.98C13.9 10.01 13.92 10.05 13.91 10.13C13.86 10.5 13.78 10.64 13.75 10.68C13.59 10.72 13.44 10.81 13.33 10.94C13.22 11.06 13.15 11.22 13.14 11.39C13.12 11.51 12.87 12.06 12.55 12.48C12.38 12.7 12.21 12.89 12.07 13.03C11.94 13.17 11.76 13.28 11.89 13.21C11.76 13.28 11.65 13.38 11.57 13.51C11.5 13.64 11.45 13.79 11.45 13.93C11.45 14.56 11.43 15.1 11.5 15.86C11.5 15.94 11.52 16.01 11.55 16.08C11.9 17.03 12.79 17.43 13.62 17.74C14.37 18.03 15.16 18.25 15.82 18.51C15.73 18.75 15.68 19.02 15.72 19.35C15.72 19.35 15.72 19.35 15.72 19.35C15.79 19.93 15.95 20.39 16.22 20.73C16.34 20.89 16.53 20.9 16.69 21C16.85 21.55 17.08 22.07 17.4 22.49C17.6 22.76 17.81 23 18 23.2C18.05 23.24 18.1 23.27 18.14 23.31C18.15 23.73 18.15 24.12 18.12 24.55C18.01 24.77 17.69 25.05 16.99 25.32C16.52 25.52 15.93 25.7 15.32 25.93C15.44 25.45 15.54 24.93 15.55 24.22C15.56 23.45 15.43 22.63 15 21.9C14.6 21.23 13.86 20.72 12.94 20.53C12.35 19.95 11.54 19.67 10.61 19.67C10.61 19.67 10.6 19.67 10.6 19.67C9.06 19.7 7.82 20.15 6.98 20.96C6.13 21.78 5.74 22.91 5.71 24.09C5.71 24.09 5.71 24.09 5.71 24.09C5.69 24.86 5.85 25.56 6.04 26.33C5.82 26.65 5.68 27.03 5.74 27.55C5.74 27.55 5.74 27.55 5.74 27.55C5.81 28.14 5.97 28.59 6.24 28.93C6.36 29.09 6.54 29.1 6.7 29.2C6.87 29.75 7.1 30.27 7.42 30.69C7.62 30.96 7.83 31.2 8.02 31.4C8.07 31.44 8.12 31.47 8.16 31.51C8.16 31.93 8.17 32.32 8.14 32.75C8.05 32.93 7.85 33.14 7.38 33.36C6.88 33.6 6.17 33.83 5.43 34.1C4.68 34.37 3.88 34.69 3.18 35.22C2.48 35.75 1.88 36.52 1.65 37.54C1.61 37.75 1.64 37.97 1.76 38.15C1.88 38.34 2.06 38.47 2.27 38.52C2.49 38.56 2.71 38.53 2.89 38.41C3.08 38.29 3.21 38.11 3.25 37.9C3.39 37.28 3.7 36.89 4.17 36.53C4.65 36.17 5.29 35.89 5.99 35.64C6.68 35.38 7.41 35.16 8.08 34.85C8.75 34.53 9.42 34.08 9.72 33.29C9.74 33.22 9.76 33.15 9.76 33.08C9.83 32.32 9.81 31.78 9.81 31.15C9.81 31 9.77 30.85 9.69 30.73C9.61 30.6 9.5 30.49 9.37 30.42C9.5 30.49 9.33 30.39 9.19 30.25C9.05 30.11 8.88 29.91 8.72 29.7C8.4 29.28 8.15 28.73 8.13 28.6C8.12 28.44 8.05 28.28 7.94 28.16C7.83 28.03 7.69 27.94 7.52 27.9C7.5 27.86 7.41 27.72 7.37 27.35C7.35 27.26 7.37 27.22 7.38 27.19C7.51 27.1 7.61 26.96 7.66 26.81C7.72 26.66 7.72 26.49 7.68 26.33C7.45 25.42 7.33 24.84 7.35 24.13C7.37 23.27 7.63 22.62 8.11 22.14C8.6 21.68 9.38 21.34 10.62 21.32C11.44 21.32 11.86 21.58 11.92 21.67C11.98 21.78 12.07 21.88 12.17 21.95C12.27 22.02 12.39 22.06 12.52 22.08C13.12 22.16 13.38 22.39 13.59 22.74C13.8 23.1 13.92 23.64 13.91 24.2C13.9 25.13 13.75 25.84 13.6 26.28C13.55 26.44 13.55 26.62 13.6 26.78C13.65 26.95 13.75 27.09 13.89 27.19C13.9 27.22 13.92 27.26 13.9 27.35C13.86 27.72 13.77 27.86 13.75 27.9C13.58 27.94 13.44 28.03 13.33 28.16C13.22 28.28 13.15 28.44 13.14 28.6C13.12 28.73 12.87 29.28 12.55 29.7C12.38 29.91 12.21 30.11 12.07 30.25C11.94 30.39 11.76 30.49 11.89 30.42C11.76 30.49 11.65 30.6 11.57 30.73C11.5 30.85 11.45 31 11.45 31.15C11.45 31.78 11.43 32.32 11.5 33.08C11.51 33.2 11.54 33.31 11.6 33.41C11.66 33.51 11.74 33.6 11.84 33.67C12.18 34.2 12.67 34.59 13.2 34.85C13.87 35.16 14.6 35.38 15.3 35.64C15.99 35.89 16.64 36.17 17.11 36.53C17.59 36.89 17.89 37.28 18.03 37.9C18.05 38 18.1 38.1 18.16 38.19C18.22 38.28 18.3 38.36 18.39 38.42C18.48 38.47 18.58 38.51 18.69 38.53C18.8 38.55 18.91 38.55 19.01 38.53C19.12 38.5 19.22 38.46 19.31 38.39C19.4 38.33 19.47 38.25 19.53 38.16C19.59 38.07 19.62 37.97 19.64 37.86C19.66 37.75 19.66 37.64 19.63 37.54C19.4 36.52 18.8 35.75 18.1 35.22C17.4 34.69 16.6 34.37 15.86 34.1C15.11 33.82 14.41 33.6 13.9 33.36C13.42 33.13 13.2 32.92 13.13 32.74C13.1 32.31 13.1 31.92 13.1 31.51C13.14 31.47 13.2 31.44 13.24 31.4C13.43 31.2 13.64 30.96 13.85 30.7C14.17 30.28 14.4 29.75 14.57 29.2C14.73 29.1 14.91 29.09 15.03 28.93C15.29 28.6 15.45 28.17 15.52 27.63C16.19 27.36 16.91 27.12 17.61 26.85C18.45 26.5 19.34 26.06 19.7 25.09C19.72 25.02 19.74 24.95 19.75 24.88C19.82 24.12 19.79 23.58 19.79 22.95C19.79 22.8 19.75 22.65 19.67 22.53C19.59 22.4 19.48 22.29 19.35 22.22C19.49 22.29 19.31 22.19 19.17 22.05C19.04 21.91 18.87 21.71 18.7 21.5C18.38 21.08 18.13 20.53 18.12 20.4C18.1 20.24 18.03 20.08 17.92 19.95C17.81 19.83 17.67 19.74 17.5 19.7C17.48 19.66 17.39 19.52 17.35 19.15C17.34 19.06 17.35 19.02 17.36 18.99C17.49 18.9 17.59 18.76 17.65 18.61C17.7 18.46 17.71 18.29 17.67 18.13C17.43 17.22 17.32 16.64 17.33 15.93C17.35 15.07 17.61 14.42 18.1 13.94C18.58 13.48 19.36 13.14 20.6 13.12C21.42 13.12 21.85 13.38 21.9 13.47C21.96 13.58 22.05 13.68 22.15 13.75C22.26 13.82 22.38 13.86 22.5 13.88C23.1 13.96 23.36 14.19 23.57 14.54C23.79 14.9 23.9 15.43 23.89 16C23.88 16.93 23.73 17.64 23.58 18.08C23.53 18.24 23.53 18.42 23.58 18.58C23.63 18.75 23.73 18.89 23.87 18.99C23.88 19.02 23.9 19.06 23.89 19.15C23.89 19.15 23.89 19.15 23.89 19.15C23.84 19.52 23.76 19.66 23.73 19.7C23.57 19.74 23.42 19.83 23.31 19.95C23.2 20.08 23.14 20.24 23.12 20.4C23.11 20.53 22.85 21.08 22.53 21.5C22.37 21.71 22.19 21.91 22.06 22.05C21.92 22.19 21.74 22.29 21.88 22.22C21.74 22.29 21.63 22.4 21.56 22.52C21.48 22.65 21.44 22.8 21.44 22.95C21.44 23.58 21.41 24.11 21.48 24.88C21.49 24.95 21.5 25.02 21.53 25.09C21.89 26.05 22.78 26.45 23.61 26.76C24.22 26.99 24.84 27.18 25.41 27.38C25.42 27.44 25.41 27.49 25.42 27.55C25.42 27.55 25.42 27.55 25.42 27.55C25.49 28.14 25.65 28.59 25.92 28.93C26.04 29.09 26.22 29.1 26.38 29.2C26.55 29.75 26.78 30.27 27.1 30.69C27.3 30.96 27.51 31.2 27.7 31.4C27.75 31.44 27.8 31.47 27.84 31.51C27.84 31.93 27.85 32.32 27.82 32.75C27.73 32.93 27.53 33.14 27.06 33.36C26.56 33.6 25.85 33.83 25.11 34.1C24.36 34.37 23.56 34.69 22.86 35.22C22.16 35.75 21.56 36.52 21.33 37.54C21.29 37.75 21.32 37.97 21.44 38.15C21.56 38.34 21.74 38.47 21.95 38.52C22.17 38.56 22.39 38.53 22.57 38.41C22.76 38.29 22.89 38.11 22.93 37.9C23.07 37.28 23.38 36.89 23.85 36.53C24.33 36.17 24.97 35.89 25.67 35.64C26.36 35.38 27.09 35.16 27.76 34.85C28.43 34.53 29.1 34.08 29.4 33.29C29.42 33.22 29.44 33.15 29.44 33.08C29.51 32.32 29.49 31.78 29.49 31.15C29.49 31 29.45 30.85 29.37 30.73C29.29 30.6 29.18 30.49 29.05 30.42C29.18 30.49 29.01 30.39 28.87 30.25C28.73 30.11 28.56 29.91 28.4 29.7C28.08 29.28 27.83 28.73 27.81 28.6C27.8 28.44 27.73 28.28 27.62 28.16C27.51 28.03 27.37 27.94 27.2 27.9C27.18 27.86 27.09 27.72 27.05 27.35C27.05 27.35 27.05 27.35 27.05 27.34C27.1 27.27 27.14 27.19 27.16 27.1C27.26 27 27.33 26.88 27.36 26.74C27.4 26.61 27.4 26.47 27.36 26.33C27.13 25.42 27.01 24.84 27.03 24.13C27.05 23.27 27.31 22.62 27.79 22.14C28.28 21.68 29.06 21.34 30.3 21.32C31.12 21.32 31.54 21.58 31.6 21.67C31.66 21.78 31.75 21.88 31.85 21.95C31.95 22.02 32.07 22.06 32.2 22.08C32.8 22.16 33.06 22.39 33.27 22.74C33.48 23.1 33.6 23.64 33.59 24.2C33.58 25.13 33.43 25.84 33.28 26.28C33.23 26.44 33.23 26.62 33.28 26.78C33.33 26.95 33.43 27.09 33.57 27.19C33.58 27.22 33.6 27.26 33.58 27.35C33.54 27.72 33.45 27.86 33.43 27.9C33.26 27.94 33.12 28.03 33.01 28.16C32.9 28.28 32.83 28.44 32.82 28.6C32.8 28.73 32.55 29.28 32.23 29.7C32.06 29.91 31.89 30.11 31.75 30.25C31.62 30.39 31.44 30.49 31.57 30.42C31.44 30.49 31.33 30.6 31.25 30.73C31.17 30.85 31.13 31 31.13 31.15C31.13 31.78 31.11 32.32 31.18 33.08C31.19 33.2 31.22 33.31 31.28 33.41C31.34 33.51 31.42 33.6 31.52 33.67C31.86 34.2 32.35 34.59 32.88 34.85C33.55 35.16 34.28 35.38 34.98 35.64C35.67 35.89 36.32 36.17 36.79 36.53C37.27 36.89 37.57 37.28 37.71 37.9C37.73 38 37.78 38.1 37.84 38.19C37.9 38.28 37.98 38.36 38.07 38.42C38.16 38.47 38.26 38.51 38.37 38.53C38.48 38.55 38.59 38.55 38.69 38.53C38.8 38.5 38.9 38.46 38.99 38.39C39.08 38.33 39.15 38.25 39.21 38.16C39.27 38.07 39.3 37.97 39.32 37.86C39.34 37.75 39.34 37.64 39.31 37.54C39.08 36.52 38.48 35.75 37.78 35.22C37.08 34.69 36.28 34.37 35.54 34.1C34.79 33.82 34.09 33.6 33.58 33.36C33.1 33.13 32.88 32.92 32.81 32.74C32.78 32.31 32.78 31.92 32.78 31.51C32.82 31.47 32.88 31.44 32.92 31.4C33.11 31.2 33.32 30.96 33.53 30.7C33.85 30.28 34.08 29.75 34.25 29.2C34.41 29.1 34.59 29.09 34.71 28.93C34.98 28.59 35.14 28.13 35.21 27.55L35.21 27.55C35.28 27.03 35.13 26.64 34.91 26.32C35.07 25.74 35.22 25.11 35.23 24.22C35.24 23.45 35.11 22.63 34.68 21.9C34.28 21.23 33.54 20.72 32.62 20.53C32.03 19.95 31.22 19.67 30.29 19.67C30.29 19.67 30.28 19.67 30.28 19.67C28.74 19.7 27.5 20.15 26.66 20.96C25.81 21.78 25.42 22.91 25.39 24.09C25.39 24.09 25.39 24.09 25.39 24.09C25.38 24.64 25.47 25.16 25.58 25.69C25.08 25.53 24.6 25.38 24.19 25.23C23.51 24.97 23.19 24.7 23.11 24.55C23.08 24.12 23.08 23.73 23.08 23.31C23.12 23.27 23.18 23.24 23.23 23.2C23.42 23 23.63 22.76 23.83 22.49C24.15 22.07 24.38 21.55 24.55 21C24.71 20.9 24.89 20.89 25.01 20.73C25.28 20.39 25.45 19.93 25.52 19.35C25.55 19.03 25.51 18.76 25.42 18.52C26.06 18.28 26.74 18.06 27.39 17.79C28.2 17.46 29.05 17.01 29.4 16.07C29.42 16 29.44 15.93 29.44 15.86C29.51 15.1 29.49 14.56 29.49 13.93C29.49 13.78 29.45 13.63 29.37 13.51C29.29 13.38 29.18 13.27 29.05 13.2C29.18 13.27 29.01 13.17 28.87 13.03C28.73 12.89 28.56 12.69 28.4 12.48C28.08 12.06 27.83 11.51 27.81 11.38C27.8 11.22 27.73 11.06 27.62 10.94C27.51 10.81 27.37 10.72 27.2 10.68C27.18 10.64 27.09 10.5 27.05 10.13C27.04 10.04 27.05 10 27.06 9.97C27.19 9.88 27.29 9.74 27.34 9.59C27.4 9.44 27.4 9.27 27.36 9.11C27.13 8.2 27.01 7.62 27.03 6.91C27.05 6.05 27.31 5.4 27.79 4.92C28.28 4.46 29.06 4.12 30.3 4.1C31.12 4.1 31.54 4.36 31.6 4.45C31.66 4.56 31.75 4.66 31.85 4.73C31.95 4.8 32.07 4.84 32.2 4.86C32.8 4.94 33.06 5.17 33.27 5.52C33.48 5.88 33.6 6.42 33.59 6.98C33.58 7.91 33.43 8.62 33.28 9.06C33.23 9.22 33.23 9.4 33.28 9.56C33.33 9.73 33.43 9.87 33.57 9.97C33.58 10 33.6 10.04 33.58 10.13C33.54 10.5 33.45 10.64 33.43 10.68C33.26 10.72 33.12 10.81 33.01 10.94C32.9 11.06 32.83 11.22 32.82 11.38C32.8 11.51 32.55 12.06 32.23 12.48C32.06 12.69 31.89 12.89 31.75 13.03C31.62 13.17 31.44 13.27 31.57 13.2C31.44 13.27 31.33 13.38 31.25 13.51C31.17 13.63 31.13 13.78 31.13 13.93C31.13 14.56 31.11 15.1 31.18 15.86C31.19 15.98 31.22 16.09 31.28 16.19C31.34 16.29 31.42 16.38 31.52 16.45C31.86 16.98 32.35 17.37 32.88 17.62C33.55 17.94 34.28 18.16 34.98 18.42C35.67 18.67 36.32 18.95 36.79 19.31C37.27 19.67 37.57 20.06 37.71 20.68C37.73 20.78 37.78 20.88 37.84 20.97C37.9 21.06 37.98 21.14 38.07 21.2C38.16 21.25 38.26 21.29 38.37 21.31C38.48 21.33 38.59 21.33 38.69 21.31C38.8 21.28 38.9 21.24 38.99 21.17C39.08 21.11 39.15 21.03 39.21 20.94C39.27 20.85 39.3 20.75 39.32 20.64C39.34 20.53 39.34 20.42 39.31 20.32C39.08 19.3 38.48 18.53 37.78 18C37.08 17.47 36.28 17.15 35.54 16.88C34.79 16.6 34.09 16.38 33.58 16.14C33.1 15.91 32.88 15.7 32.81 15.52C32.78 15.09 32.78 14.7 32.78 14.29C32.82 14.25 32.88 14.22 32.92 14.18C33.11 13.98 33.32 13.74 33.53 13.48C33.85 13.06 34.08 12.53 34.25 11.98C34.41 11.88 34.59 11.87 34.71 11.71C34.98 11.37 35.14 10.91 35.21 10.33L35.21 10.33C35.28 9.81 35.13 9.42 34.91 9.1C35.07 8.52 35.22 7.89 35.23 7C35.24 6.23 35.11 5.41 34.68 4.68C34.28 4.01 33.54 3.5 32.62 3.31C32.03 2.73 31.22 2.45 30.29 2.45C30.29 2.45 30.28 2.45 30.28 2.45Z" fill="url(#paint_linear_51_1240_0)" fill-opacity="1.000000" fill-rule="nonzero"/>
	</g>
</svg>
