<svg width="32.000000" height="32.000000" viewBox="0 0 32 32" fill="none" xmlns="http://www.w3.org/2000/svg" xmlns:xlink="http://www.w3.org/1999/xlink">
	<desc>
			Created with Pixso.
	</desc>
	<defs>
		<clipPath id="clip51_1220">
			<rect id="icons8_enter 1" rx="0.000000" width="31.000000" height="31.000000" transform="translate(0.500000 0.500000)" fill="white" fill-opacity="0"/>
		</clipPath>
		<linearGradient x1="15.995525" y1="0.000000" x2="15.995525" y2="32.000000" id="paint_linear_51_1221_0" gradientUnits="userSpaceOnUse">
			<stop stop-color="#FFC619"/>
			<stop offset="0.468750" stop-color="#F69020"/>
			<stop offset="1.000000" stop-color="#EA422A"/>
		</linearGradient>
	</defs>
	<rect id="icons8_enter 1" rx="0.000000" width="31.000000" height="31.000000" transform="translate(0.500000 0.500000)" fill="#FFFFFF" fill-opacity="0"/>
	<g clip-path="url(#clip51_1220)">
		<path id="Vector" d="M8.32 0C7.26 0 6.4 0.86 6.4 1.91L6.4 14.08L7.68 14.08L7.68 1.91C7.68 1.55 7.95 1.28 8.32 1.28L30.08 1.28C30.44 1.28 30.72 1.55 30.72 1.91L30.72 30.08C30.72 30.44 30.44 30.72 30.08 30.72L8.32 30.72C7.95 30.72 7.68 30.44 7.68 30.08L7.68 17.91L6.4 17.91L6.4 30.08C6.4 31.13 7.26 32 8.32 32L30.08 32C31.13 32 32 31.13 32 30.08L32 1.91C32 0.86 31.13 0 30.08 0L8.32 0ZM14.1 8.38C13.98 8.38 13.85 8.42 13.75 8.49C13.64 8.56 13.56 8.66 13.51 8.78C13.46 8.9 13.45 9.03 13.48 9.15C13.5 9.27 13.57 9.39 13.66 9.48L19.53 15.36L0.64 15.36C0.55 15.35 0.47 15.37 0.39 15.4C0.31 15.43 0.24 15.48 0.18 15.54C0.12 15.6 0.07 15.67 0.04 15.75C0 15.83 -0.01 15.91 -0.01 16C-0.01 16.08 0 16.16 0.04 16.24C0.07 16.32 0.12 16.39 0.18 16.45C0.24 16.51 0.31 16.56 0.39 16.59C0.47 16.62 0.55 16.64 0.64 16.63L19.53 16.63L13.66 22.51C13.59 22.57 13.55 22.64 13.51 22.72C13.48 22.8 13.46 22.88 13.46 22.97C13.46 23.05 13.48 23.14 13.51 23.22C13.54 23.3 13.59 23.37 13.65 23.43C13.71 23.49 13.78 23.53 13.86 23.57C13.94 23.6 14.02 23.62 14.11 23.61C14.19 23.61 14.28 23.6 14.35 23.56C14.43 23.53 14.5 23.48 14.56 23.42L21.98 16L14.56 8.57C14.5 8.51 14.43 8.46 14.35 8.43C14.27 8.4 14.19 8.38 14.1 8.38Z" fill="url(#paint_linear_51_1221_0)" fill-opacity="1.000000" fill-rule="nonzero"/>
	</g>
</svg>
