<svg width="285.000000" height="505.000000" viewBox="0 0 285 505" fill="none" xmlns="http://www.w3.org/2000/svg" xmlns:xlink="http://www.w3.org/1999/xlink">
	<desc>
			Created with Pixso.
	</desc>
	<defs/>
	<path id="Rectangle 24" d="M0 81C0 79.89 0.89 79 2 79L2 98C0.89 98 0 97.1 0 96L0 81Z" fill="#606571" fill-opacity="1.000000" fill-rule="evenodd"/>
	<path id="Rectangle 25" d="M0 122C0 120.89 0.89 120 2 120L2 157C0.89 157 0 156.1 0 155L0 122Z" fill="#606571" fill-opacity="1.000000" fill-rule="evenodd"/>
	<path id="Rectangle 26" d="M0 175C0 173.89 0.89 173 2 173L2 210C0.89 210 0 209.1 0 208L0 175Z" fill="#606571" fill-opacity="1.000000" fill-rule="evenodd"/>
	<path id="Rectangle 27" d="M283 157C284.1 157 285 157.89 285 159L285 192C285 193.1 284.1 194 283 194L283 157Z" fill="#606571" fill-opacity="1.000000" fill-rule="evenodd"/>
	<rect id="Rectangle 22" x="2.000000" rx="41.000000" width="281.000000" height="505.000000" fill="#C4C4C4" fill-opacity="0"/>
	<rect id="Rectangle 22" x="9.500000" y="7.500000" rx="41.000000" width="266.000000" height="490.000000" stroke="#202124" stroke-opacity="1.000000" stroke-width="15.000000"/>
	<rect id="Rectangle 23" x="2.000000" rx="41.000000" width="281.000000" height="505.000000" fill="#C4C4C4" fill-opacity="0"/>
	<rect id="Rectangle 23" x="8.000000" y="6.000000" rx="41.000000" width="269.000000" height="493.000000" stroke="#606571" stroke-opacity="1.000000" stroke-width="12.000000"/>
	<rect id="Rectangle 21" x="2.000000" rx="41.000000" width="281.000000" height="505.000000" fill="#C4C4C4" fill-opacity="0"/>
	<rect id="Rectangle 21" x="5.000000" y="3.000000" rx="41.000000" width="275.000000" height="499.000000" stroke="#2C383F" stroke-opacity="1.000000" stroke-width="6.000000"/>
</svg>
