<svg width="41.000000" height="41.000000" viewBox="0 0 41 41" fill="none" xmlns="http://www.w3.org/2000/svg" xmlns:xlink="http://www.w3.org/1999/xlink">
	<desc>
			Created with Pixso.
	</desc>
	<defs>
		<clipPath id="clip51_1258">
			<rect id="icons8_present 1" rx="0.000000" width="40.000000" height="40.000000" transform="translate(0.500000 0.500000)" fill="white" fill-opacity="0"/>
		</clipPath>
		<linearGradient x1="20.497637" y1="1.704102" x2="20.497637" y2="39.295975" id="paint_linear_51_1259_0" gradientUnits="userSpaceOnUse">
			<stop stop-color="#FFC619"/>
			<stop offset="0.484375" stop-color="#F69020"/>
			<stop offset="1.000000" stop-color="#EA422A"/>
		</linearGradient>
	</defs>
	<rect id="icons8_present 1" rx="0.000000" width="40.000000" height="40.000000" transform="translate(0.500000 0.500000)" fill="#FFFFFF" fill-opacity="0"/>
	<g clip-path="url(#clip51_1258)">
		<path id="Vector" d="M12.51 1.7C7.65 3.74 3.74 7.65 1.7 12.51L3.21 13.15C5.08 8.69 8.69 5.08 13.15 3.21L12.51 1.7ZM20.5 3.28C10.99 3.28 3.28 10.99 3.28 20.5C3.28 30 10.99 37.72 20.5 37.72C30 37.72 37.72 30 37.72 20.5C37.72 10.99 30 3.28 20.5 3.28ZM20.5 4.91C29.11 4.91 36.08 11.88 36.08 20.5C36.08 29.11 29.11 36.08 20.5 36.08C11.88 36.08 4.91 29.11 4.91 20.5C4.91 11.88 11.88 4.91 20.5 4.91ZM19.67 8.19L19.67 19.08C19.43 19.22 19.22 19.43 19.08 19.68C18.93 19.93 18.86 20.21 18.86 20.5C18.86 20.93 19.03 21.35 19.34 21.65C19.64 21.96 20.06 22.14 20.5 22.14C20.64 22.13 20.78 22.12 20.92 22.08L25.66 26.81L26.81 25.66L22.08 20.92C22.11 20.78 22.13 20.64 22.14 20.5C22.13 20.21 22.06 19.92 21.91 19.68C21.77 19.43 21.56 19.22 21.32 19.08L21.32 8.19L19.67 8.19ZM37.78 27.84C35.84 32.31 32.3 35.91 27.84 37.78L28.48 39.29C33.34 37.25 37.18 33.34 39.29 28.49L37.78 27.84Z" fill="url(#paint_linear_51_1259_0)" fill-opacity="1.000000" fill-rule="nonzero"/>
	</g>
</svg>
